<svg xmlns="http://www.w3.org/2000/svg" style="display:block" viewBox="0 0 1536 1024"><path d="M0 0h1536v1024H0z" style="fill:#010d26"/><path d="M0 0c7.198 3.845 14.217 7.903 21.2 12.125 6.294 3.788 12.646 7.48 18.988 11.188A3067 3067 0 0 1 75 44q4.998 3.002 10 6l7.522 4.513 7.302 4.382 2.426 1.455 4.861 2.917q7.298 4.38 14.6 8.753l3.446 2.065 6.707 4.016 3.077 1.844 2.74 1.641A156 156 0 0 1 143 85l-2 4c-2.145 1.938-2.145 1.938-4.812 4-5.648 4.491-10.918 9.299-16.192 14.219-3.598 3.34-7.294 6.557-10.996 9.781q-2.755 2.495-5.5 5a663 663 0 0 1-16.684 14.71c-5.755 4.905-11.458 9.836-17.004 14.977-4.535 4.2-9.217 8.127-14.03 12-4.085 3.396-7.937 7.029-11.829 10.641-2.667 2.414-5.39 4.682-8.203 6.922C28.106 187.39 21.095 194.243 14 201l-2-1 1.386-2.924C22.375 178.104 31.322 159.117 40 140c-58.379 10.13-116.831 20.755-174.34 35.093-5.733 1.42-11.478 2.788-17.222 4.157-23.294 4.718-23.294 4.718-45.438 12.75l5-1c26.945-4.775 26.945-4.775 39.063-6.062 7.84-.839 15.497-2.33 23.23-3.86 7.361-1.427 14.77-2.558 22.182-3.683 4.388-.678 8.632-1.422 12.943-2.512C-91 174-91 174-86 174c-3 2-3 2-6.829 3.145l-4.776 1.238-5.166 1.347-5.416 1.395-5.452 1.418Q-120.317 184.279-127 186v2l-2.744.823A5944 5944 0 0 0-160 198l-3.12.95c-11.156 3.421-21.227 7.424-30.84 14.109-5.724 4.398-10.23 9.134-14.29 15.101-2.953 4.792-5.353 9.751-7.75 14.84a2144 2144 0 0 1-21.364 43.802q-2.458 4.898-4.91 9.799-5.205 10.388-10.413 20.774-6.065 12.09-12.121 24.185-2.394 4.777-4.792 9.552c-5.627 11.225-11.127 22.491-16.4 33.888l-1-3 1-3-1-3q1.155-3.25 2.313-6.5l1.3-3.656c2.582-7.158 5.312-14.255 8.075-21.344l1.886-4.844L-272 336c-3.782 8.244-7.414 16.544-11 24.875a2347 2347 0 0 1-15.05 34.079c-4.072 9.049-8.053 18.135-12.012 27.233-13.868 31.8-28.959 62.975-44.528 93.972-4.06 8.095-8.063 16.206-11.91 24.404-3.852 8.18-7.976 16.17-12.227 24.148-2.854 5.384-5.576 10.824-8.273 16.289l-1-3 12-26-2 3-1-3 .962-2.244a6743 6743 0 0 0 4.35-10.193l1.514-3.53c2.671-6.28 5.133-12.52 7.174-19.033l-3 3v-3l-1.582 3.256C-380.918 543.573-392.341 566.842-404 590l-2 1c1.776-5.875 4.318-11.405 6.813-17l2.984-6.746 1.584-3.582c10.987-24.919 21.537-50.005 31.778-75.24A2125 2125 0 0 1-354 467l-2.352 4.188a2263 2263 0 0 1-19.467 33.936 1964 1964 0 0 0-13.1 22.751c-3.275 5.763-6.655 11.452-10.081 17.125l-1-2 2.117-5.04q1.38-3.292 2.758-6.585l1.395-3.316 1.347-3.223 1.238-2.952c1.163-2.93 2.176-5.884 3.145-8.884q-3.534 7.28-7.062 14.563l-1.99 4.1A1740 1740 0 0 0-410 559l-1-3 2-5q-3.814 6.187-7.625 12.375l-2.16 3.504A1709 1709 0 0 0-431 587l-1-2 2.133-3.863C-412.277 549.35-412.277 549.35-398 516l-2.246 3.828a2775 2775 0 0 1-35.99 59.473q-4.334 6.97-8.573 14l-1.929 3.194q-1.847 3.063-3.683 6.133c-2.305 3.822-4.41 7.203-7.579 10.372 1.668-5.552 4.11-10.701 6.563-15.937 5.075-10.953 9.937-21.993 14.75-33.063a26450 26450 0 0 0 6.564-15.11q4.864-11.2 9.748-22.39l1.646-3.785c4.995-11.441 10.274-22.736 15.729-33.965 8.671-18.256 16.6-36.944 24-55.75l-1.022 2.168c-1.55 3.28-3.108 6.556-4.666 9.832l-1.607 3.41c-2.917 6.12-6.022 11.883-9.705 17.59-1.048 2.312-2.066 4.64-3 7h-2l-1.33 2.75a90286 90286 0 0 1-11.952 24.723A843 843 0 0 1-419 510l-1-2c13.666-31.677 27.567-63.233 41.97-94.583 9.386-20.429 18.73-40.875 27.893-61.405q3.13-7.007 6.305-13.992c12.076-26.625 23.167-53.652 33.957-80.82 1.992-5.01 4.016-10.005 6.063-14.993l1.557-3.797q1.473-3.583 2.955-7.162A581 581 0 0 0-296 223v-2l-14 1c3-2 3-2 5.848-2.816l3.214-.746c4.084-.904 4.084-.904 7.938-2.438-7.537.587-14.391 2.323-21.625 4.375-8.37 2.319-16.684 4.437-25.23 6.02-2.984.574-5.894 1.274-8.832 2.042-7.092 1.84-14.284 3.146-21.481 4.5-4.77 1.05-9.213 2.485-13.832 4.063-3.84 1.114-7.7 2.152-11.562 3.188-1.514.408-1.514.408-3.057.826q-3.69.995-7.381 1.986l-3-1c16.97-6.087 33.96-12.112 51-18-4.948.554-9.683 1.304-14.5 2.563l-3.156.816L-378 228l-3-1 3.206-1.298 11.943-4.836 7.644-3.095c8.754-3.546 17.496-7.118 26.207-10.771-7.67 1.762-15.138 3.954-22.625 6.375-9.725 3.14-19.509 5.957-29.375 8.625a5275 5275 0 0 0-18 5l-4.64 1.297c-16.523 4.668-32.947 9.667-49.36 14.703l-3.787 1.156c-10.607 3.269-21.115 6.816-31.615 10.41q-4.385 1.5-8.772 2.995c-17.073 5.825-33.926 12.113-50.771 18.57l-4.86 1.85-4.405 1.684C-564 281-564 281-569 282c3.467-3.467 7.297-5.627 11.5-8.062 8.51-5.011 16.748-10.359 24.938-15.875C-504.852 239.43-475.95 222.78-446 208l-2.583.902a9217 9217 0 0 1-11.604 4.036l-4.065 1.42-3.916 1.357-3.602 1.254C-475 218-475 218-480 219c3.221-2.416 5.877-4.036 9.453-5.75l3.284-1.58c1.16-.55 2.319-1.102 3.513-1.67l3.6-1.723c11.657-5.559 23.39-10.947 35.15-16.277-3.89.778-7.134 1.689-10.812 3.063l-2.958 1.097-2.23.84-2-1c30.006-16.52 61.849-28.37 94-40-12.26 2.669-24.087 6.077-36 10l-2-1c45.54-21.371 93.501-38.63 142.09-51.664a291 291 0 0 0 12.847-3.836c10-3.175 20.134-5.834 30.278-8.502q3.886-1.024 7.769-2.062c41.39-11.045 84.292-21.668 127.336-22.608 7.52-.303 14.93-1.555 22.368-2.64 15.572-2.237 31.132-3.764 46.812-5l3.232-.264C19.856 67.284 33.828 66.774 48 67c-4.763-6.252-9.727-12.172-15-18l1-2 6 3-3.5-3.875c-3.524-3.967-6.877-8.03-10.168-12.191-2.916-3.668-5.874-7.3-8.832-10.934-3.733-4.586-7.45-9.181-11.125-13.812C3.19 5.083 3.19 5.083 0 2z" style="fill:#fbfbfb" transform="translate(663 97)"/><path d="M0 0h4.549l4.877.016 5.02.004q7.93.01 15.863.031l10.758.014Q54.25.08 67.434.114c-1.855 5.639-3.81 11.121-6.187 16.562l-1.606 3.691-1.207 2.747 1 1q3.815-2.59 7.625-5.188l4.29-2.918a133 133 0 0 0 10.085-7.894l3-8h104c-3.38 11.264-3.38 11.264-5.008 15.535l-1.05 2.76-1.067 2.767-1.09 2.873a470 470 0 0 1-2.785 7.065l-1 1h-69l-2 9-7 20h66c-3.06 10.201-7.044 20.11-11 30l-66 1-9 26-2 5h71c-3.15 10.502-7.097 20.753-11 31h-107c8.188-23.396 8.188-23.396 11.016-31.399l1.023-2.897c7.097-20.084 14.246-40.144 21.639-60.121 1.475-3.997 2.938-7.997 4.4-11.998l1.544-4.222 2.94-8.051 1.32-3.61c.58-1.582.58-1.582 1.17-3.198.948-2.504.948-2.504 1.948-4.504-10.795 2.04-10.795 2.04-21 6l-1 2-2.286.004c-7.885.02-15.77.074-23.654.148q-4.408.035-8.816.043c-4.236.01-8.47.05-12.705.097l-3.953-.011c-3.597.057-7.026.195-10.586.719-3.664 1.36-6.63 2.976-10 5-2.83 3.629-4.961 6.904-6.703 11.18l-1.547 4.695a3675 3675 0 0 1-1.797 5.332l-.951 2.842c-1.764 5.196-3.637 10.352-5.502 15.513l-1.143 3.19c-1.774 4.938-3.578 9.857-5.486 14.744l-1.933 5.004-1.723 4.343c-1.335 4.567-1.434 8.424-1.215 13.157a181 181 0 0 0 4 4l2 1c1.97.12 3.945.177 5.919.205l3.76.06 4.079.05 4.161.064q6.603.096 13.206.183l8.934.13q10.97.161 21.941.308c-1.371 7.036-3.51 13.422-6.125 20.062l-1.129 2.912q-1.366 3.515-2.746 7.026c-10.801.101-21.602.171-32.403.22-3.674.017-7.347.047-11.02.081-5.285.049-10.57.072-15.854.09l-4.963.062c-11.15.002-11.15.002-15.765-1.303-3.142-1.36-5.863-3.054-8.624-5.072l-5.37-5.078c-2.223-4.93-3.877-8.933-4.5-14.313 1.176-11.037 5.84-21.724 9.562-32.125l1.438-4.035c4.7-13.156 9.498-26.275 14.343-39.378a798 798 0 0 0 2.933-8.161c2.936-8.2 6.159-15.855 11.223-22.988 4.17-5.048 8.832-9.088 14.25-12.75 5.913-3.576 12.156-6.202 18.75-8.25C-8.996.185-4.66-.008 0 0" style="fill:#f9f9fa" transform="translate(793.566 435.886)"/><path d="m0 0 2 1-2.273 2.824c-9.764 12.161-19.24 24.507-28.582 36.992C-34.19 47.914-39.595 54.956-45 62l-2.55 3.328A2629 2629 0 0 1-59.87 81.25c-10.044 12.882-19.991 25.841-29.755 38.938-4.326 5.793-8.78 11.486-13.228 17.187a891 891 0 0 0-11.635 15.273 1995 1995 0 0 1-10.074 13.29l-2.082 2.73-4.243 5.562q-5.059 6.633-10.113 13.27l-1.979 2.596q-5.17 6.787-10.337 13.576l-2.155 2.83-4.039 5.309c-11.8 15.5-11.8 15.5-13.49 17.189h-43l-.812-11c-1.078-14.187-2.399-28.347-3.758-42.509q-.674-7.053-1.336-14.108a9347 9347 0 0 0-5.844-60.01 8227 8227 0 0 0-3.32-32.706q-.706-6.82-1.404-13.637-.334-3.234-.675-6.466C-234.332 37.362-235.384 26.284-235 15a6245 6245 0 0 1 17.563-5.937l5.025-1.71 4.853-1.63 4.46-1.508C-199.361 3.107-195.855 2.504-192 2l.232 3.093c4.63 61.733 4.63 61.733 9.326 123.46l.629 8.217.868 11.304.248 3.258A720 720 0 0 0-179 170l2.168-3.086a2450 2450 0 0 1 19.559-27.39q3.223-4.453 6.421-8.922c6.467-9.022 13.088-17.904 19.84-26.715 4.401-5.75 8.734-11.544 13.012-17.387 4.926-6.725 9.934-13.38 15-20 6.846-8.949 13.563-17.985 20.22-27.074 3.21-4.377 6.434-8.745 9.655-13.114l3.555-4.824L-67 18C-44.9 11.12-22.462 5.558 0 0" style="fill:#0062f6" transform="translate(1228 360)"/><path d="M0 0c24.251 2.453 48.742 10.253 70.977 20.11 11.913 5.597 22.61 11.905 32.253 20.992 2.99 3.2 5.1 6.499 7.207 10.336C112 56 112 56 112.564 60.438 112 65 112 65 109.937 70.062c-2.715 4.875-5.796 9.18-9.937 12.938-4.21 3.195-8.579 6.108-13 9q-3.407 2.28-6.812 4.563A3751 3751 0 0 1 75 100l5-1c-3 3-3 3-7.707 5.46q-3.047 1.47-6.106 2.915l-3.355 1.594c-32.456 15.286-65.898 28.076-99.456 40.698a1934 1934 0 0 0-45.613 17.814 2489 2489 0 0 1-12.458 4.98c-26.724 10.62-53.061 21.705-79.058 34.007a1010 1010 0 0 1-8.255 3.848c-8.89 4.113-17.54 8.582-26.183 13.188-4.658 2.417-9.361 4.664-14.121 6.871-7.817 3.655-15.37 7.643-22.914 11.823-7.538 4.166-15.172 8.123-22.836 12.052-8.897 4.577-17.514 9.347-25.938 14.75q-4.15 2.51-8.312 5l-3.864 2.313L-309 278l-2-1c22.378-14.086 45.178-27.431 68.16-40.504 10.016-5.713 19.928-11.604 29.84-17.496-8.436 4.15-16.745 8.5-25 13l-2-1 10-6c-5.965 1.889-11.69 4.085-17.45 6.527-7.13 2.958-14.348 5.696-21.55 8.473l-3-1a1615 1615 0 0 0-56.83 25.51 877 877 0 0 1-8.057 3.728c-10.75 4.932-21.08 10.536-31.417 16.27-4.553 2.52-9.125 5.005-13.696 7.492l-2-1c8.634-4.818 17.278-9.617 25.967-14.335 15.641-8.494 31.14-17.23 46.533-26.165 26.915-15.606 54.066-30.13 82.376-43.068 4.346-1.992 8.674-4.02 12.999-6.057 1.256-.59 2.511-1.18 3.805-1.79A478 478 0 0 0-203 195c-44.49 15.423-87.946 33.25-130.157 54.11-5.112 2.514-10.256 4.955-15.406 7.39C-363.83 263.748-378.9 271.407-394 279l-2-1c6.022-3.346 12.078-6.564 18.25-9.625 6.797-3.373 13.53-6.853 20.25-10.375 6.39-3.348 12.786-6.67 19.25-9.875 16.632-8.264 33.284-16.622 49.25-26.125q-5.658 2.34-11.312 4.688l-3.19 1.318A590 590 0 0 0-324 237l-2-1 2.762-1.363a1085 1085 0 0 0 26.965-13.867c4.682-2.475 9.37-4.767 14.273-6.77l1-3a8057 8057 0 0 1 12.375-5.75l3.504-1.633c6.64-3.076 13.298-5.97 20.121-8.617-8.06 1.914-15.926 4.18-23.82 6.688a627 627 0 0 1-12.243 3.687l-4.347 1.277q-4.666 1.37-9.336 2.727c-18.398 5.458-36.498 11.8-54.641 18.041a1852 1852 0 0 1-21.68 7.248c-4.014 1.36-7.97 2.826-11.933 4.332a8050 8050 0 0 1-9.234 3.463L-407 248l-3-1c15.578-6.64 31.14-13.262 47.07-19.02 4.402-1.6 8.683-3.294 12.922-5.289 8.095-3.748 16.517-6.674 24.883-9.754 12.239-4.533 24.407-9.182 36.438-14.25 42.258-17.73 86.139-31.646 130.14-44.326a1312 1312 0 0 0 25.172-7.548c9.213-2.862 18.457-5.573 27.742-8.196 6.69-1.905 13.348-3.92 20.008-5.93C-70.116 128.012-54.565 123.489-39 119l3 1-3 2 2.984-1.05 8.851-3.115q5.079-1.785 10.156-3.575c7.46-2.624 14.92-5.244 22.411-7.776C30.766 97.908 56.78 88.38 78.75 72.75c2.519-1.99 4.279-3.79 6.145-6.418C86.34 63.932 87.68 61.471 89 59V47c-3.072-5.23-6.146-9.464-10.75-13.437C64.632 23.028 49.149 16.512 33 11 22.089 7.363 11.082 4.073 0 1z" style="fill:#f5f6f7" transform="translate(1354 598)"/><path d="M0 0q18.711-.106 37.424-.155a5455 5455 0 0 0 17.379-.071q8.392-.047 16.787-.059 3.194-.008 6.389-.032c2.994-.022 5.987-.025 8.981-.024l5.155-.02C97.6.044 101.82 1.186 107 3c3.473 2.24 6.242 4.927 9 8 2.142 3.48 3.007 6.027 4 10 .39 5.455.432 10.132-.8 15.465-1.29 4.223-2.727 8.372-4.2 12.535q-1.047 3.098-2.09 6.195-1.14 3.31-2.285 6.618l-1.062 3.143c-3.27 9.222-8.135 16.943-14 24.731-2.552 2.755-4.96 4.559-8.172 6.543-7.416 3.9-14.6 6.745-22.817 8.395C62 105 62 105 59 105q2.85 8.19 5.707 16.376l1.934 5.553a6078 6078 0 0 0 3.73 10.689 415 415 0 0 0 6.792 17.977L78 158v3H38l-4-13c-4.141-13.4-8.499-26.717-13-40l-16-1c.832-4.161 1.83-7.286 3.469-11.14l1.48-3.493L11.5 88.75c.512-1.21 1.024-2.418 1.55-3.664C15.842 78.533 15.842 78.533 17 76l1-1 3.53-.044q6.532-.094 13.065-.218 2.819-.051 5.636-.084c2.714-.034 5.427-.088 8.14-.142l4.935-.08C58.29 73.973 62.348 72.816 67 71c2.936-1.85 2.936-1.85 5-5 1.91-3.916 3.485-7.917 5-12l1.813-4.75c1.2-4.297 1.429-7.813 1.187-12.25l-5-3-52-1-1 5a351 351 0 0 1-3 8.348l-1.913 5.145L15 57.063l-2.157 5.778c-5.797 15.496-11.746 30.93-17.73 46.355A3447 3447 0 0 0-18 143.5l-1.51 4.01-1.365 3.646-1.18 3.15c-1.057 2.88-1.057 2.88-1.945 6.694h-37c.864-5.182 2.03-9.019 3.957-13.844l1.854-4.668c.66-1.646 1.32-3.292 2.002-4.988l2.058-5.171A6658 6658 0 0 1-45 117l1.658-4.138 2.975-7.42c12.38-30.886 24.247-61.947 35.78-93.158A2831 2831 0 0 1 0 0" style="fill:#fafafb" transform="translate(461 428)"/><path d="M0 0h36a413155 413155 0 0 1 1.146 79.13 117770 117770 0 0 1 .484 33.462l.186 12.967c.02 1.259.038 2.518.057 3.815.115 8.21.127 16.412.127 24.626H2v-28l-58 1c-9.564 12.953-9.564 12.953-19 26h-40c5.607-11.213 14.799-21.064 22.507-30.938C-82 108.61-71.729 94.992-61.517 81.327c4.815-6.428 9.727-12.774 14.67-19.103 7.68-9.839 15.072-19.88 22.468-29.932C-16.379 21.428-8.283 10.65 0 0" style="fill:#fafafb" transform="translate(657 436)"/><path d="M0 0h103c-1.345 4.036-2.714 7.86-4.348 11.766l-1.334 3.195-1.38 3.289-1.393 3.336C91.155 29.69 91.155 29.69 90 32H22l-3 10-7 20h65c-2 9-2 9-10 30H1l-3 10-8 22h71a889 889 0 0 1-11 31H-56c2.248-10.115 2.248-10.115 3.926-14.336l1.143-2.917 1.243-3.122q1.364-3.487 2.723-6.977l1.462-3.75c4.388-11.377 8.566-22.834 12.791-34.271q2.556-6.902 5.126-13.799A2576 2576 0 0 0-6.797 17.71l.928-2.687q1.246-3.61 2.487-7.224C-2 4-2 4 0 0" style="fill:#fafafb" transform="translate(1198 436)"/><path d="M0 0v1l-3.732.535q-6.838.983-13.675 1.974-2.963.428-5.925.852-4.253.61-8.504 1.229l-5.173.746C-40.765 6.76-40.765 6.76-43 8l4.695 1.25c25.691 6.943 51.673 15.331 74.18 29.938A205 205 0 0 1 41 43l2.938 2.172c4.465 3.444 8.349 6.791 11.562 11.453C59.811 64.17 59.811 64.17 61 68c.33 3.966.48 7.115 0 11-1.558 5.819-3.809 10.898-7 16l-1-2 1.938-3.937C56.932 84.167 57.668 80.24 58 75l-4-1-1-11-3-4v4l-6-1-8-11-2-1 2 4-3.187-2.75A295 295 0 0 0 24 44h-8l1.898 3.07 2.477 4.055 2.46 4.008C24.706 58.47 26.044 61.317 27 65c.318 4.96.225 9.115-1 13.938-3.3 6.702-7.41 12.339-12.559 17.753-28.322 26.987-66.696 44.745-101.757 61.082-9.382 4.46-18.491 9.438-27.641 14.352-6.101 3.271-12.217 6.484-18.418 9.563a1834 1834 0 0 0-20.875 10.562l-2.916 1.48c-16.745 8.647-32.558 18.875-48.188 29.37a2954 2954 0 0 1-7.935 5.302C-237.803 244.11-260.86 260.398-283 278l-6.875 5.375C-306.029 296.078-321.773 309.2-337 323c-7.385 6.692-7.385 6.692-12 9 5.875-6.875 5.875-6.875 7-8l-7-2-1-1h-3c5.428-5.606 10.959-10.679 17.047-15.55 3.264-2.708 6.356-5.554 9.453-8.45 5.644-5.264 11.48-10.177 17.5-15q2.532-2.092 5.063-4.187c14.21-11.595 28.806-22.454 43.937-32.813l3.613-2.504c18.608-12.684 38.192-23.996 57.852-34.957 3.214-1.8 6.397-3.613 9.535-5.539l2 1-3.43 2.3c-2.2 1.492-2.2 1.492-4.445 3.012l-4.43 2.989L-203 214l-2 3 4.438-2.75c3.214-1.992 6.333-3.586 9.812-5.102 5-2.261 9.642-4.913 14.313-7.773l2.649-1.604a957 957 0 0 0 15.6-9.708c21.565-13.476 44.196-24.737 66.973-35.98A2579 2579 0 0 0-79 148c-3.9.78-6.774 1.606-10.367 3.117l-3.15 1.323-3.358 1.435-3.483 1.481c-15.312 6.573-30.317 13.804-45.095 21.5L-147 178h-3v2l-4.5 1.75c-4.631 1.847-9.071 3.954-13.5 6.25l-2-1 9-5-4-1c-5.896 1.18-10.774 3.622-16.125 6.25l-6.75 3.277-3.54 1.726c-5.894 2.872-11.802 5.715-17.71 8.56l-3.427 1.652c-8.12 3.91-16.263 7.764-24.448 11.535l-2-1 2.09-1.137c10.473-5.62 10.473-5.62 20.738-11.601 10.376-6.254 21.367-10.71 32.582-15.206a233 233 0 0 0 6.625-2.849L-174 181h3l-1-5c-3.392-.561-3.392-.561-8 0-4.974 1.851-9.682 4.215-14.437 6.563a6970 6970 0 0 1-8.57 4.12l-4.467 2.156c-7.399 3.532-14.867 6.91-22.339 10.286l-4.109 1.862-7.592 3.436A7700 7700 0 0 0-256 211l-3-1c-10.832 5.03-21.493 10.23-32.016 15.883a386 386 0 0 1-11.046 5.617c-7.815 3.866-15.374 8.168-22.938 12.5l-2-1c11.284-6.96 22.825-13.366 34.495-19.646a647 647 0 0 0 6.263-3.44c9.134-5.023 18.554-9.371 28.023-13.717a875 875 0 0 0 21.8-10.39c15.8-7.777 31.928-14.529 48.252-21.122 18.732-7.575 37.26-15.53 55.605-23.998l4.865-2.245a910 910 0 0 0 26.09-12.644c4.902-2.443 9.865-4.732 14.857-6.986q3.087-1.404 6.172-2.812l3.224-1.469C-61.445 117.267-45.575 109.957-30 102q2.999-1.503 6-3l4-2 2 1-9 7c8.914-2.86 16.248-7.88 23.688-13.437L0 89l-1-2c-1.64.03-1.64.03-3.312.063C-8 87-8 87-11 86l-1-5 2.125-2C-6.556 75.537-3.758 71.923-1 68c2.185-4.766 2.185-4.766 2.375-9.25-.181-4.8-.181-4.8-1.937-9.312C-3.225 44.59-5.962 40.733-10 37c-10.89-9.259-22.908-15.51-36-21-4.628-1.803-9.269-3.49-14-5l1-4q8.03-1.189 16.063-2.375l4.533-.672C-31.19 2.89-23.974 1.84-16.75.843l3.52-.486C-8.783-.135-4.47-.138 0 0" style="fill:#020f2b" transform="translate(1464 600)"/><path d="M0 0h4.61l4.96.016 5.09.004q8.055.01 16.108.031l10.916.014Q55.07.08 68.456.114q-2.433 6.626-4.875 13.25l-1.395 3.8c-.444 1.206-.89 2.41-1.347 3.653L59.6 24.18c-1.145 2.933-1.145 2.933-3.145 6.933l-5.381.028c-6.605.04-13.21.106-19.815.179q-4.282.042-8.566.064c-4.111.021-8.221.068-12.332.12l-3.852.003c-3.397.056-6.684.176-10.054.606-4.59 1.675-4.59 1.675-8 4-2.536 2.198-4.506 4.287-6.413 7.038-2.215 4.133-3.662 8.489-5.17 12.915l-1.02 2.95c-1.075 3.114-2.142 6.23-3.21 9.347q-1.583 4.595-3.168 9.188a2951 2951 0 0 0-2.064 6.012 776 776 0 0 1-7.93 21.982c-1.15 3.548-1.15 3.548-1.306 7.283l.28 3.285 2 4 4 2c3.032.327 3.032.327 6.422.318l3.942.06 4.246.036 4.355.058c4.595.06 9.19.106 13.786.153l9.34.117q11.454.143 22.91.258c-.82 4.097-1.832 7.511-3.285 11.394l-1.358 3.643-1.42 3.775-1.431 3.834q-1.748 4.68-3.506 9.354c-10.604.127-21.207.214-31.812.274q-5.406.038-10.812.103c-5.193.06-10.386.089-15.58.11l-4.85.079c-5.71.001-11.019-.027-16.542-1.572-4.052-1.612-7.51-3.351-11.053-5.899-3.255-2.901-5.167-6.352-7.351-10.095-.723-6.379-.879-12.638 0-19 3.574-14.623 9.4-28.77 15.02-42.704 3.592-9.297 6.505-18.868 9.542-28.358 3.228-9.915 6.61-19.443 12.606-28.052 4.54-4.943 9.143-8.913 14.922-12.351C-18.412 2.879-10.32-.017 0 0" style="fill:#fbfbfb" transform="translate(1354.544 436.886)"/><path d="m0 0 7 1v2h2v2L6 6 1 3l2.563 2.938c2.854 3.372 5.58 6.806 8.277 10.304 6.157 7.86 12.535 15.548 18.855 23.278l1.805 2.21q2.506 3.07 5.016 6.137C40 51 40 51 41 53l-5-2h-2l2.3 2.484 3.013 3.266 2.988 3.234C45 63 45 63 48 67v2l-3.863.212C-6.437 72.029-6.437 72.029-56.656 78.43c-4.683.614-9.248.773-13.969.882-13.533.421-26.844 2.628-40.206 4.693l-5.364.815-4.845.759L-125 86l-4-1v-2l-5-2v-5l-7-1v-1c-7.35.622-14.444 1.747-21.668 3.215l-3.27.654q-3.398.68-6.794 1.369c-3.455.7-6.911 1.39-10.368 2.08l-6.63 1.334-3.11.622c-4.081.83-8.096 1.707-12.094 2.877-3.42.947-6.444.803-9.965.727-7.064.277-14.04 1.898-20.976 3.185q-4.713.872-9.43 1.722l-4.187.778L-253 93l-4-1c7.078-2.574 14.25-4.291 21.586-5.977a549 549 0 0 0 11.601-2.835l4.02-.997a873 873 0 0 0 7.744-1.953C-185.564 73.426-158.294 68.928-131 67v-4l2-1-1-4-6-1v-2c-11.181.54-22.089 2.11-33.125 3.938l-2.735.446c-18.722 3.065-37.343 6.639-55.951 10.327l-3.246.638q-2.99.59-5.98 1.192c-5.99 1.18-11.889 1.935-17.963 2.459l3-2a242 242 0 0 1 9.379-2.172l2.871-.615a2457 2457 0 0 1 9.313-1.963l3.195-.675c17.565-3.708 35.173-7.075 52.884-10.016q3.19-.53 6.376-1.086c8.295-1.438 16.626-2.459 24.982-3.473q4.963-.624 9.926-1.254l10.387-1.309 5.283-.67C-93.96 45.82-93.96 45.82-83 46v-2l-4-1-4-4 1-3 5 2 1-2-5-1v-1l-5-1 1-2 3-2c5.257 0 10.499.265 15.75.5l3.27.145q3.99.176 7.98.355v-2l-2-1h10v2l15-1-11-1 2-5c3-3 3-3 5.75-4.687L-40 16c3.875-.187 3.875-.187 7 0v-2h-47v-1c13.219-2.644 27.069-2.124 40.5-2.187l4.442-.04c7.656-.006 14.621.375 22.058 2.227l-3 2 1 2 1-2h6v-2l4-3 4-1-5-2 1-5z" style="fill:#05112a" transform="translate(663 95)"/><path d="M0 0c5.326.006 10.652.002 15.978-.003C50.33-.035 84.683.262 118.994 2.13l4.941.25c8.083.421 16.13.944 24.184 1.75v1l-2.305.013q-28.033.156-56.067.327-13.559.082-27.116.158-13.13.072-26.26.155-4.963.031-9.926.056c-29.397.156-58.792.624-88.15 2.229l-4.893.257q-4.988.264-9.975.535-7.63.411-15.26.81-4.905.26-9.81.523l-4.554.24c-6.929.379-13.793.863-20.684 1.697-4.694.252-9.389.438-14.086.621-4.765.254-9.484.747-14.227 1.27-8.212.89-16.427 1.594-24.664 2.223l-3.786.29-7.826.598c-25.916 1.996-51.647 4.53-77.411 7.998q-3.701.48-7.402.957c-6.039.783-12.072 1.598-18.104 2.426q-5.031.69-10.062 1.375c-23.984 3.266-47.921 6.66-71.776 10.785-15.163 2.596-30.388 4.826-45.604 7.088-28.755 4.278-57.433 8.783-85.99 14.244l-3.629.693c-12.36 2.37-24.673 4.847-36.924 7.738-3.51.694-3.51.694-8.51.694l3-1v-3l-3-1v-3c-15.4 1.678-30.526 4.95-45.655 8.215l-5.094 1.098-4.484.988c-3.766.7-3.766.7-8.766.7 3-2 3-2 6.691-3.008l4.871-1.118 5.664-1.312 3.212-.738c4.011-.929 8.017-1.875 12.023-2.825l8.976-2.125 4.305-1.02c11.978-2.823 23.972-5.472 36.07-7.73a1873 1873 0 0 0 23.375-4.562 18870 18870 0 0 1 15.876-3.176c27.248-5.43 54.64-9.913 82.173-13.635 7.309-.988 14.6-2.021 21.877-3.216 19.918-3.262 40.016-5.27 60.066-7.53q15.9-1.798 31.758-3.935c26.535-3.571 53.217-6.864 79.989-7.801 6.159-.327 12.256-.983 18.386-1.645 43.074-4.515 86.523-5.776 129.778-7.47q5.484-.22 10.968-.458C-43.22-.05-21.616-.023 0 0" style="fill:#f5f6f7" transform="translate(1056.881 668.87)"/><path d="M0 0c-3 2-3 2-5.639 2.81l-3.21.794-3.639.91-3.93.963-4.023 1a6670 6670 0 0 1-12.747 3.148l-8.63 2.14Q-52.408 14.393-63 17l-3 5 2 1v3l-5 2c14.349-2.71 28.563-5.917 42.775-9.27C-19.147 17.082-12.253 15.55-5 15l1 1q6.938-1.904 13.875-3.812l3.938-1.08C20.903 9.155 27.967 7.147 35 5l4 1q-3.937 1.255-7.875 2.5l-4.43 1.406C23 11 23 11 21 11v6l-2 2q-7.687 2.255-15.375 4.5l-4.43 1.3-4.218 1.231-3.904 1.143C-12 28-12 28-14 28v-3h-8v2h-3v2c-4.568 1.239-8.231 2-13 2l-1-1-1 2h-2v-2c-10.098 2.622-20.092 5.49-30.062 8.563-14.28 4.366-28.605 8.56-42.958 12.681-7.71 2.217-15.4 4.481-23.06 6.862-3.572 1.094-7.165 2.11-10.76 3.123-12.63 3.578-25.057 7.686-37.493 11.879-11.156 3.75-22.35 7.353-33.574 10.89C-242.063 90.983-264.047 98.4-286 106l-8.375 2.89-3.875 1.338q-6.87 2.369-13.743 4.732a1559 1559 0 0 0-8.534 2.985l-4.848 1.68-4.023 1.414c-3.695.986-6.797 1.148-10.602.961l1-3 4.223-1.836 2.784-1.21q3.102-1.35 6.204-2.696c5.191-2.255 10.38-4.515 15.559-6.797a753 753 0 0 1 68.968-26.41c9.2-3.016 18.36-6.142 27.512-9.301l4.201-1.449Q-204.773 67.652-200 66l-2-2c3.275-2.456 6.585-4.749 10-7l1-2-6 1v-4l-3.34 1.137c-9.111 3.073-18.245 5.966-27.48 8.64-11.406 3.337-22.824 6.798-33.93 11.035-7.261 2.67-14.73 4.655-22.172 6.75-7.545 2.136-15.02 4.466-22.492 6.84-7.469 2.371-14.936 4.724-22.461 6.91a1393 1393 0 0 0-54.668 17.2 529 529 0 0 1-14.289 4.527A1242 1242 0 0 0-409 118.5a3719 3719 0 0 1-21 6.5l-3-1c8.112-3.346 16.333-6.235 24.645-9.043l4.3-1.459q6.933-2.347 13.868-4.686l4.776-1.613c21.05-7.107 42.128-14.111 63.286-20.886l3.243-1.04c10.977-3.513 21.975-6.928 33.043-10.144 4.794-1.41 9.558-2.907 14.323-4.413a751 751 0 0 1 35.158-10.2 472 472 0 0 0 19.983-5.766c40.249-12.484 81.47-23.091 122.496-32.717 17.182-4.041 34.276-8.42 51.379-12.783q6.88-1.755 13.76-3.506 4.249-1.081 8.497-2.167l3.858-.982 3.381-.863C-8.532.642-4.622 0 0 0" style="fill:#031331" transform="translate(1262 709)"/><path d="m0 0 3 3c1.688 3.563 1.688 3.563 3 8 .375 5.006.236 9.072-1 13.938C1.7 31.64-2.41 37.277-7.559 42.69c-28.322 26.987-66.696 44.745-101.757 61.082-9.382 4.46-18.491 9.438-27.641 14.352-6.101 3.271-12.217 6.484-18.418 9.563a1834 1834 0 0 0-20.875 10.562l-2.916 1.48c-16.745 8.647-32.558 18.875-48.188 29.37a2954 2954 0 0 1-7.935 5.302C-258.803 190.11-281.86 206.398-304 224l-6.875 5.375C-327.029 242.078-342.773 255.2-358 269c-7.385 6.692-7.385 6.692-12 9 5.875-6.875 5.875-6.875 7-8l-7-2-1-1h-3c5.428-5.606 10.959-10.679 17.047-15.55 3.264-2.708 6.356-5.554 9.453-8.45 5.644-5.264 11.48-10.177 17.5-15q2.532-2.092 5.063-4.187c14.21-11.595 28.806-22.454 43.937-32.813l3.613-2.504c18.608-12.684 38.192-23.996 57.852-34.957 3.214-1.8 6.397-3.613 9.535-5.539l2 1-3.43 2.3c-2.2 1.492-2.2 1.492-4.445 3.012l-4.43 2.989L-224 160l-2 3 4.438-2.75c3.214-1.992 6.333-3.586 9.812-5.102 5-2.261 9.642-4.913 14.313-7.773l2.649-1.604a957 957 0 0 0 15.6-9.708c21.565-13.476 44.196-24.737 66.973-35.98A2579 2579 0 0 0-100 94c-3.9.78-6.774 1.606-10.367 3.117l-3.15 1.323-3.358 1.435-3.483 1.481c-16.167 6.94-31.958 14.68-47.642 22.644l-3-1c7.911-4.34 15.875-8.455 24.063-12.25a321 321 0 0 0 20-10.25c9.508-5.285 19.19-10.171 28.937-15 9.956-4.939 19.872-9.919 29.625-15.25l2.578-1.408C-60.757 66.055-55.873 63.066-51 60l4.375-2.375C-41.489 54.71-36.769 51.472-32 48l2.844-2.027C-21.27 40.235-13.796 34.009-7 27l2-4-2 1c2-4 2-4 4-7l-1-2 4-1z" style="fill:#003a95" transform="translate(1485 654)"/><path d="M0 0v3l4 1-1 3-2 2c-1.014.23-2.028.461-3.072.7-21.494 4.9-42.932 9.956-64.3 15.38a2519 2519 0 0 1-31.853 7.862c-11.528 2.765-23.014 5.583-34.412 8.851-5.387 1.49-10.809 2.815-16.238 4.145-9.286 2.28-18.405 4.891-27.547 7.699a244 244 0 0 1-12.328 3.3c-6.724 1.634-13.36 3.495-20 5.438l-3.087.902a915 915 0 0 0-14.901 4.508l-2.726.844c-2.443.76-4.882 1.532-7.321 2.305-3.981 1.007-7.148 1.085-11.215 1.066-2.95.937-2.95.937-5.75 2.313-6.933 3.074-13.898 4.849-21.25 6.687a791 791 0 0 0-5.5 1.938C-287.456 85.284-294.616 87-302 87l-1 2h-2v2l-9 2v-5c8.61-3.748 17.325-6.9 26.25-9.812l3.738-1.233Q-279.507 75.471-275 74l4-6c35.941-12.172 35.941-12.172 52.41-16.71 4.733-1.33 9.408-2.79 14.09-4.29 15.368-4.905 30.922-9.143 46.488-13.363a3452 3452 0 0 0 16.92-4.654c17.88-4.948 35.747-9.767 53.849-13.84 5.058-1.145 10.048-2.361 15.024-3.823C-67.436 10.11-63.873 9.938-59 10a256 256 0 0 0 11-2.187l3.143-.673q6.574-1.41 13.137-2.868 3.216-.713 6.437-1.412 3.003-.652 6-1.335C-12.73.106-6.706-.191 0 0" style="fill:#313c51" transform="translate(500 732)"/><path d="M0 0c5.326.006 10.652.002 15.978-.003C50.33-.035 84.683.262 118.994 2.13l4.941.25c8.083.421 16.13.944 24.184 1.75v1l-2.305.013q-28.033.156-56.067.327-13.559.082-27.116.158-13.13.072-26.26.155-4.963.031-9.926.056c-29.397.156-58.792.624-88.15 2.229l-4.893.257q-4.988.264-9.975.535-7.63.411-15.26.81-4.905.26-9.81.523l-4.554.24c-6.929.379-13.793.863-20.684 1.697-4.694.252-9.389.438-14.086.621-4.765.254-9.484.747-14.227 1.27-8.212.89-16.427 1.594-24.664 2.223l-3.788.29-7.828.599c-27.31 2.1-54.507 4.6-81.61 8.62l-4.02.584-3.527.535c-3.3.262-6.025-.054-9.25-.742v-1l6-1-1-2h2v-2l-4.25.063c-4.75-.063-4.75-.063-8.75-1.063l-2 1-5-1v-1c26.142-3.718 52.528-6.807 78.926-7.73 6.159-.327 12.256-.983 18.386-1.645 43.074-4.515 86.523-5.776 129.778-7.47q5.484-.22 10.968-.458C-43.22-.05-21.616-.023 0 0" style="fill:#eeeef0" transform="translate(1056.881 668.87)"/><path d="m0 0 4 1a3438 3438 0 0 1-36.125 11.125l-2.792.845a3291 3291 0 0 1-45.61 13.427c-7.535 2.162-15.046 4.377-22.532 6.702-3.579 1.096-7.179 2.115-10.782 3.13-12.629 3.578-25.056 7.686-37.492 11.879-11.156 3.75-22.35 7.353-33.574 10.89C-207.063 65.983-229.047 73.4-251 81l-8.375 2.89-3.875 1.338q-6.87 2.369-13.743 4.732a1559 1559 0 0 0-8.534 2.985l-4.848 1.68-4.023 1.414c-3.695.986-6.797 1.148-10.602.961l1-3 4.223-1.836 2.784-1.21q3.102-1.35 6.204-2.696c5.191-2.255 10.38-4.515 15.559-6.797 22.38-9.846 44.881-18.51 68.125-26.125a1555 1555 0 0 0 21.492-7.234C-152.691 36.772-119.63 26.066-86 17l3.683-1C-40.699 4.718-40.699 4.718-33 5v2c8.146-1.26 16.026-2.932 24-5 2.981-.745 5.98-1.434 9-2" style="fill:#005fe8" transform="translate(1227 734)"/><path d="m0 0 2 1-2.804 1.89C-28.019 21.236-55.08 39.551-80.677 60.14a861 861 0 0 1-7.26 5.735c-4.667 3.729-9.073 7.7-13.465 11.746a285 285 0 0 1-6.785 6.004 160 160 0 0 0-7.938 7.5C-120 95-120 95-123.062 97.5c-2.972 2.53-5.428 5.295-7.954 8.262-2.233 2.519-4.587 4.874-6.984 7.238-4.214 4.17-8.124 8.512-12 13a3693 3693 0 0 1-5.25 5.625c-5.165 5.593-9.835 11.479-14.437 17.54C-172 152-172 152-175 154l2-8-7 7a194 194 0 0 1-2-9l-6 5c2.02-4.04 4.112-6.475 7.188-9.75 3.06-3.271 6.07-6.551 8.992-9.95 4.67-5.363 9.72-10.346 14.757-15.363l2.881-2.892c32.198-32.154 71.66-57.77 109.815-82.24A2434 2434 0 0 0-28.5 18.5 6735 6735 0 0 1 0 0" style="fill:#f1f1f2" transform="translate(1426 760)"/><path d="m0 0-1 3h2l1 7-11 24-4 1-2-1v2h2v2c-4-1-4-1-9-3l-4-5-3.621 7.645-8.374 17.678-2.387 5.04a7466 7466 0 0 1-7.292 15.364l-3.297 6.93C-54.112 89.38-57.074 96.18-60 103l7-3 3 1-2.52 1.172-3.292 1.578-3.27 1.547L-62 107l-3 4-1-3-4.687 1.574c-18.921 6.34-18.921 6.34-27.938 9.114-7.206 2.22-14.297 4.713-21.375 7.312l-4-1c19.218-7.332 38.586-14.208 58-21l3-9h-8l-1 1h-8v-4l-8 1 2-2 2.292-.703q5.166-1.584 10.333-3.172l3.605-1.105 3.497-1.075 3.205-.984A450 450 0 0 0-54 81l2.02-4.258C-45.482 63.078-38.808 49.512-32 36l3-6-3.488.918L-67 40l-3-1c8.88-4.28 18.21-7.18 27.563-10.25l5.08-1.68Q-31.181 25.03-25 23l3-9c-2.631-2.947-2.631-2.947-5-4V8c-12.556 2.23-24.74 5.546-37 9l-4-1c13.11-4.145 26.35-7.803 39.625-11.375l4.995-1.373C-15.39 1.126-8.28-.62 0 0" style="fill:#020e24" transform="translate(286 496)"/><path d="m0 0 3.563.5c3.869.436 7.55.581 11.437.5l1 3-1 1 6 4h10q2.658 2.153 5.313 4.313l2.988 2.425C42 18 42 18 45 21v-3a181 181 0 0 1 4 4l1 2c.313 4.625.313 4.625 0 10-1.437 4.063-1.437 4.063-4 8-3.58 4.479-7.568 7.992-12.254 11.29C24.004 59.404 13.685 63.803 3 68l-3.23 1.316c-4.422 1.73-8.431 2.776-13.145 3.434C-23.009 74.12-32.029 78.39-41 82l-5 2-4-1q6.998-3.16 14-6.312l3.988-1.803C-25.735 72.062-19.494 69.295-13 67l-5-1c3.696-2.772 6.3-3.995 10.563-5.562C-1.093 57.955 4.963 55.142 11 52l4.688-2.437C19.934 47.039 23.418 44.392 27 41c2.575-3.734 2.575-3.734 4-8 .335-4.834.335-4.834 0-9-2.176-3.717-4.476-6.468-7.562-9.5C18.72 10.521 13.493 7.758 8 5L3.313 2.625 0 1z" style="fill:#003a93" transform="translate(1383 624)"/><path d="M0 0v3l4 1-1 3-2 2c-1.014.23-2.028.461-3.072.7-21.495 4.9-42.934 9.955-64.303 15.382C-72.912 26.738-79.456 28.369-86 30l-4.26 1.066a4827 4827 0 0 1-12.865 3.184l-4.398 1.102-4.235 1.039-3.785.938c-3.257.632-6.151.802-9.457.671v-2l4.375-.875 2.754-.555a831 831 0 0 1 8.183-1.57c4.824-.89 4.824-.89 9.688-3a706 706 0 0 1 10-2c2.67-.65 5.34-1.31 8-2v-2h-2l-4-4c-2.341.27-4.675.613-7 1l-4 2-3-1c-3.793 1.002-6.715 1.81-10 4h-4v3h-2l-1-3-5.25 1.5c-3.522 1.006-6.042 1.5-9.75 1.5l-1 3v-2l-4 1-1 2v-2l-3 1 1-3 16.928-4.233a7884 7884 0 0 1 22.467-5.591c4.067-1.039 8.123-2.112 12.18-3.196l4.185-1.107q4.168-1.104 8.33-2.232C-71.382 10.919-65.783 9.823-59 10a256 256 0 0 0 11-2.187l3.143-.673q6.574-1.41 13.137-2.868 3.216-.713 6.437-1.412 3.003-.652 6-1.335C-12.73.106-6.706-.191 0 0" style="fill:#7b818e" transform="translate(500 732)"/><path d="M0 0v1l-3.732.535q-6.838.983-13.675 1.974-2.963.428-5.925.852-4.253.61-8.504 1.229l-5.173.746C-40.765 6.76-40.765 6.76-43 8l4.695 1.25c25.691 6.943 51.673 15.331 74.18 29.938A205 205 0 0 1 41 43l2.938 2.172c4.465 3.444 8.349 6.791 11.562 11.453C59.811 64.17 59.811 64.17 61 68c.33 3.966.48 7.115 0 11-1.558 5.819-3.809 10.898-7 16l-1-2 1.938-3.937C56.932 84.167 57.668 80.24 58 75l-4-1-1-11-3-4v4l-6-1-8-11-2-1 2 4-3.187-2.75A295 295 0 0 0 24 44h-8l5 8-1 2a2580 2580 0 0 1-3.937-4.875l-2.215-2.742C12 44 12 44 11 42l4 1 5-2C-1.844 26.6-27.473 18.678-52 10V7c7.666-2.827 15.693-3.523 23.75-4.625l4.867-.695C-15.52.592-7.938-.305 0 0" style="fill:#0a4599" transform="translate(1464 600)"/><path d="M0 0h1c.03 6.208.047 12.417.063 18.625l.025 5.281.01 5.196.016 4.729C.973 40.23.456 46.616 0 53h-37c2.395-4.79 5.418-9.015 8.5-13.375l1.911-2.716Q-23.799 32.951-21 29l2.762-3.902C-12.243 16.67-6.134 8.327 0 0" style="fill:#09142a" transform="translate(659 480)"/><path d="M0 0q18.105-.036 36.209-.052 8.413-.007 16.828-.023C89.002-.148 124.952.043 160.875 2l4.941.25c8.083.42 16.13.943 24.184 1.75v1l-2.305.013q-28.034.156-56.067.326-13.559.083-27.116.158-13.13.074-26.26.156-4.963.03-9.926.056c-17.2.09-34.393.284-51.589.748l-4.337.116c-8.55.25-17.078.67-25.615 1.225-5.616.3-11.2.226-16.82.08l-3.425-.07q-5.301-.116-10.602-.245l-7.284-.159A7966 7966 0 0 1-69 7V6c17.594-1.63 35.156-3.237 52.826-3.709C-10.722 2.142-5.4 1.781 0 1z" style="fill:#979ca5" transform="translate(1015 669)"/><path d="M0 0v3c-8.135 7.797-16.822 14.479-26 21l-2.687 1.969c-24.165 17.487-54.099 30.231-82.204 39.93-4 1.417-7.894 3.04-11.8 4.699-4.174 1.769-8.366 3.491-12.559 5.215l-4.453 1.832L-143 79l-3-1 2.18-.899C-124.99 69.427-124.99 69.427-107 60c-7.88 1.4-14.637 4.228-21.875 7.5l-3.414 1.512c-6.034 2.663-6.034 2.663-11.711 5.988l-4-1 4.469-2.125c13.414-6.388 13.414-6.388 26.719-13 6.388-3.217 12.864-6.186 19.398-9.096C-79.088 41.6-60.872 33.134-43 24q2.999-1.503 6-3l4-2 2 1-9 7c9.5-3.047 17.164-8.573 25.125-14.437C-9.677 8.613-4.811 4.41 0 0" style="fill:#0040a0" transform="translate(1477 678)"/><path d="m0 0 3 1-4 3 1 3 3 2c3.686-.6 7.336-1.267 11-2l-5 5 6 1v2l-4.5 1.75C5.869 18.597 1.429 20.704-3 23l-2-1 9-5-4-1c-5.896 1.18-10.774 3.622-16.125 6.25l-6.75 3.277-3.54 1.726c-5.894 2.872-11.802 5.715-17.71 8.56l-3.427 1.652C-55.672 41.375-63.815 45.229-72 49l-2-1 2.09-1.137c10.473-5.62 10.473-5.62 20.738-11.601 10.376-6.254 21.367-10.71 32.582-15.206a233 233 0 0 0 6.625-2.849L-9 16h3l-1-5c-3.392-.561-3.392-.561-8 0-4.974 1.851-9.682 4.215-14.437 6.563a6970 6970 0 0 1-8.57 4.12l-4.467 2.156c-7.399 3.532-14.867 6.91-22.339 10.286l-4.109 1.862-7.592 3.436A7700 7700 0 0 0-91 46l-3-1c-10.832 5.03-21.493 10.23-32.016 15.883a386 386 0 0 1-11.046 5.617c-7.815 3.866-15.374 8.168-22.938 12.5l-2-1c11.284-6.96 22.825-13.366 34.495-19.646a647 647 0 0 0 6.263-3.44c9.134-5.023 18.554-9.371 28.023-13.717a877 877 0 0 0 21.803-10.391c15.925-7.84 32.186-14.647 48.646-21.279A1060 1060 0 0 0-7.375 3.125l4.414-1.867z" style="fill:#003988" transform="translate(1299 765)"/><path d="m0 0 7 2v2l5 2c-3.272 2.181-6.167 3.169-9.902 4.398l-4.33 1.434-4.705 1.543-9.899 3.273-5.128 1.69c-7.704 2.542-15.402 5.1-23.098 7.662l-4.437 1.471a1519 1519 0 0 0-23.298 7.95c-1.594.558-3.189 1.115-4.832 1.688a1530 1530 0 0 0-9.143 3.235l-4.154 1.453-3.638 1.292c-3.62.96-6.707 1.079-10.436.911l1-3 4.223-1.836c.919-.4 1.838-.8 2.784-1.21q3.102-1.35 6.204-2.696c5.191-2.255 10.38-4.515 15.559-6.797C-50.555 17.606-25.66 8.295 0 0" style="fill:#0045a8" transform="translate(1027 787)"/><path d="m0 0-1 3h-2V1c-3.793 1.002-6.715 1.81-10 4-2.324.394-4.658.735-7 1l-4 3 5 1 1 3 3 2-3.45.687a37483 37483 0 0 0-18.404 3.669c-9.799 1.95-19.588 3.909-29.33 6.135C-69 26-69 26-74 26l3-1v-3l-3-1v-3c-15.402 1.678-30.527 4.95-45.656 8.215l-5.094 1.098-4.484.988C-133 29-133 29-138 29c3-2 3-2 6.691-3.008l4.871-1.117 5.665-1.312 3.211-.739c4.011-.928 8.017-1.875 12.023-2.824l8.977-2.125 4.304-1.02c11.978-2.823 23.972-5.472 36.07-7.73q12.045-2.276 24.063-4.687l3.203-.64A935 935 0 0 0-15.258.98l4.008-.855 3.36-.742C-5-1-5-1 0 0" style="fill:#edeef0" transform="translate(574 714)"/><path d="M0 0c7.832.675 15.349 2.27 23 4l3-1c17.882 7.527 17.882 7.527 22.938 11.188C52 17 52 17 54 19.875L55 22v8c-5.292 6.523-5.292 6.523-8.875 8.938-.701.35-1.403.7-2.125 1.062l-3-1 3-3c-5.202 1.844-10.29 3.683-15.332 5.934C11.395 49.58-6.65 53.84-25 58l-4-1 3-2c-21.9-1.736-43.8-2.759-65.75-3.625l-10.023-.406Q-113.886 50.478-126 50l2-3c9.419-.26 18.718.127 28.102.871l7.215.55c1.254.095 2.51.19 3.802.29 10.615.792 21.236 1.5 31.858 2.204q4.13.275 8.263.561 6.084.418 12.17.817l3.697.262c7.867.502 15.205.483 22.95-1.232l2.529-.776 2.863-.87 2.926-.927 3.063-.957C16.208 44.377 25.841 40.726 35 34c2.442-2.185 2.442-2.185 4-4l1-7c-1.275-2.85-1.275-2.85-4-6C25.732 8.954 12.129 5.328 0 1z" style="fill:#303a4e" transform="translate(1318 625)"/><path d="M0 0c-4.36 2.907-9.25 3.89-14.254 5.266l-3.422.957A4917 4917 0 0 1-28.563 9.25c-20.942 5.798-20.942 5.798-41.622 12.46-5.496 1.859-11.063 3.454-16.635 5.067-11.406 3.337-22.824 6.798-33.93 11.035-7.261 2.67-14.73 4.655-22.172 6.75-7.545 2.136-15.02 4.466-22.492 6.84-7.469 2.371-14.936 4.724-22.461 6.91a1393 1393 0 0 0-54.668 17.2 529 529 0 0 1-14.289 4.527A1242 1242 0 0 0-268 83.5a3719 3719 0 0 1-21 6.5l-3-1c8.112-3.346 16.333-6.235 24.645-9.043l4.3-1.459q6.933-2.347 13.868-4.686l4.776-1.613c21.05-7.107 42.128-14.111 63.286-20.886l3.243-1.04c10.977-3.513 21.975-6.928 33.043-10.144 4.794-1.41 9.558-2.907 14.323-4.413a751 751 0 0 1 35.158-10.2 471 471 0 0 0 19.983-5.766c15.72-4.894 31.642-9.107 47.53-13.419a965 965 0 0 0 9.905-2.78l4.858-1.387 4.348-1.26C-5 0-5 0 0 0" style="fill:#d6d7da" transform="translate(1121 744)"/><path d="m0 0 2 1c-29.196 24.255-65.19 40.25-99 57-14.129 7.017-28.245 14.037-42.172 21.45a888 888 0 0 1-10.844 5.632l-3.224 1.654a1209 1209 0 0 1-6.081 3.096c-16.704 8.587-32.457 18.809-48.033 29.267a2954 2954 0 0 1-7.935 5.303c-22.328 14.916-44.358 30.279-65.399 46.977-5.391 4.266-10.853 8.44-16.312 12.621l-2-1c4.908-4.28 9.938-8.314 15.125-12.25 5.147-3.91 10.277-7.838 15.375-11.812 6.87-5.284 13.935-10.27 21.044-15.225q3.962-2.766 7.917-5.541c22.263-15.581 44.907-30.33 68.121-44.461a922 922 0 0 0 12.106-7.586c27.377-17.061 56.426-31.417 85.75-44.812C-34.74 24.062-34.74 24.062 0 0" style="fill:#0066df" transform="translate(1465 704)"/><path d="M0 0v1c-6.194 1.106-12.287 2.087-18.562 2.563-5.1.192-5.1.192-8.438 1.437-3.478.441-6.955.852-10.437 1.25a439 439 0 0 0-26.266 3.941l-3.602.65c-13.899 2.528-27.762 5.242-41.621 7.98q-6.682 1.318-13.365 2.626l-8.572 1.69-4 .783c-4.808.953-9.537 1.907-14.25 3.263-3.342.946-6.34.77-9.786.695-7.064.277-14.04 1.898-20.976 3.185q-4.713.872-9.43 1.722l-4.187.778L-197 34l-4-1c7.078-2.574 14.25-4.291 21.586-5.977a549 549 0 0 0 11.601-2.835l4.02-.997a873 873 0 0 0 7.744-1.953c29.302-7.536 59.222-11.306 89.26-14.586 6.047-.665 12.073-1.466 18.102-2.277C-41.79 3.45-34.92 2.689-27.973 2.25c3.397-.286 6.73-.79 10.098-1.312C-11.835.022-6.103-.165 0 0" style="fill:#dde0e5" transform="translate(607 154)"/><path d="m0 0 4 1-1.601 3.37-16.147 33.994q-1.871 3.94-3.746 7.877l-2.381 5.009-2.113 4.441C-25.123 62.404-28.08 69.191-31 76l7-3 3 1-2.52 1.172-3.293 1.578-3.269 1.547L-33 80l-3 4-1-3-4.687 1.574c-18.921 6.34-18.921 6.34-27.938 9.114C-76.831 93.908-83.922 96.4-91 99l-4-1c19.218-7.332 38.586-14.208 58-21l3-9h-8l-1 1h-8v-4l-8 1 2-2 2.292-.703q5.167-1.584 10.333-3.172l3.605-1.105 3.497-1.075 3.205-.984A450 450 0 0 0-25 54l2.02-4.258C-16.482 36.078-9.808 22.512-3 9l3-6-3.488.918L-38 13l-3-1c6.578-3.171 12.8-5.092 19.938-6.562C-13.918 3.928-6.972 2.18 0 0" style="fill:#5682ac" transform="translate(257 523)"/><path d="m0 0 2 4v5l7-7c0 3.411-.491 6.63-1 10l-1.547 1.844C.57 20.938-4.953 28.255-10.398 35.69-13 39-13 39-16 41l1-4-5 2-5 1v-2l-6-1c2-5 2-5 4.285-7.945l2.778-3.18a600 600 0 0 0 13.062-15.633C-7.621 6.352-3.905 3.212 0 0" style="fill:#2e3a4f" transform="translate(1244 903)"/><path d="M0 0v1c-12.903 2.02-25.826 3.566-38.812 4.938C-55.905 7.746-72.956 9.787-90 12l-4.249.548q-6.282.814-12.564 1.64l-3.886.505-3.57.475-3.144.415c-2.693.363-2.693.363-5.587 1.417-3.248.423-6.496.812-9.75 1.188-11.406 1.376-22.766 3.025-34.125 4.75-1.614.24-3.227.48-4.89.729-7.8 1.197-15.49 2.562-23.18 4.337-6.23 1.436-12.413 2.55-18.743 3.445-11.226 1.607-22.238 3.948-33.312 6.363q-3.119.674-6.237 1.345-6.114 1.317-12.225 2.643c-7.113 1.543-14.232 3.058-21.35 4.575-5.906 1.26-11.809 2.53-17.696 3.875l-4.93 1.125-4.12.96C-317 53-317 53-322 53c3-2 3-2 6.48-2.973l4.707-1.09c.89-.206 1.78-.413 2.695-.627 3.37-.78 6.744-1.546 10.118-2.31l4.472-1.015c10.257-2.323 20.518-4.625 30.78-6.92q6.195-1.39 12.385-2.803c20.361-4.627 40.814-8.518 61.467-11.6 8.005-1.199 15.992-2.495 23.978-3.82 16.525-2.74 33.018-5.387 49.672-7.229 6.441-.753 12.82-1.77 19.21-2.867C-90 8.852-83.953 8.21-77.89 7.551c8.06-.908 16.098-1.992 24.14-3.051C-15.746-.426-15.746-.426 0 0" style="fill:#7dadd4" transform="translate(1010 696)"/><path d="m0 0 4.875.063v1a3666 3666 0 0 1-27.273 2.972c-31.724 3.383-63.209 8.116-94.727 13.028l-3.976.618q-13.608 2.116-27.211 4.256l-3.602.567c-11.976 1.888-23.937 3.804-35.857 6.029-4.206.664-8.11.761-12.354.53v-1c-12.04.581-23.687 2.817-35.5 5.062q-4.5.851-9 1.692-4.05.757-8.1 1.527c-4.4.718-4.4.718-9.4.718l-2-1-5.062 1c-4.379.804-8.473 1.199-12.938 1l3-2a268 268 0 0 1 11.5-2.124l3.148-.551 3.133-.52 2.815-.47c3.404-.334 3.404-.334 8.346-.23 7.22.048 14.125-1.289 21.206-2.589l4.386-.778c4.615-.82 9.228-1.653 13.841-2.488 34.58-6.226 34.58-6.226 51.727-8.64l3.52-.505c6.526-.885 12.793-1.262 19.378-1.105v1q-11.074 1.686-22.15 3.364l-7.527 1.143q-5.425.825-10.85 1.646l-3.373.514c-6.023.91-12.039 1.707-18.1 2.334v2l4.535-.883c20.407-3.906 40.919-7.044 61.465-10.117l-3-2c7.222-1.275 14.192-2.106 21.523-2.36 10.353-.51 20.452-1.916 30.685-3.48a1139 1139 0 0 1 63.218-7.816c3.077-.297 6.152-.616 9.226-.942C-6.943.138-3.539-.045 0 0" style="fill:#001c49" transform="translate(922.125 689.938)"/><path d="m0 0 4 1-25 9-3 5-2.592 1.066c-21.072 8.583-21.072 8.583-41.51 18.543C-71 36-71 36-76 37v-2l-3.875-.437C-84 34-84 34-86 33l-6 1 2-2a253 253 0 0 1 8.71-3.387l2.728-1.013c2.977-1.102 5.957-2.195 8.937-3.288l3.07-1.13C-44.504 15.06-22.283 7.455 0 0" style="fill:#002358" transform="translate(298 241)"/><path d="m0 0 1 2 3 1v2h2c-2.75 8.625-2.75 8.625-5 12-5.627 10.184-10.836 20.576-16 31l-3.5 7-1.469 2.938L-21 60h-2l-1.33 2.75q-2.99 6.188-5.983 12.375l-2.091 4.328-3.878 8.02A843 843 0 0 1-41 97l-1-2C-28.283 63.205-14.316 31.53 0 0" style="fill:#dbdce0" transform="translate(285 510)"/><path d="M0 0v1l-2.528.563Q-8.39 2.872-14.25 4.188l-4.274.955c-9.539 2.147-18.988 4.488-28.41 7.107C-51 13-51 13-54.738 12.457c-3.978-.427-6.399-.197-10.246.617a634 634 0 0 0-6.766 1.614q-3.628.848-7.258 1.69c-1.187.28-2.375.558-3.598.845-4.657 1.066-9.33 1.991-14.019 2.902C-105.473 21.86-114.24 23.867-123 26l-4-1c11.229-3.293 22.433-6.414 33.848-9.008 4.298-1.027 8.53-2.21 12.777-3.43A408 408 0 0 1-59.25 7.25l2.756-.638c5.113-1.117 10.065-1.778 15.29-2.089 8.626-.518 16.946-2.204 25.407-3.882l3.578-.68 3.19-.631C-5.793-1.023-3.171-.68 0 0" style="fill:#116cdc" transform="translate(451 182)"/><path d="M0 0c3 1 3 1 5 2l3 1-4 1 1 2 3 2-3.871 1.625c-16.378 6.959-32.341 14.697-48.32 22.52-5.066 2.467-10.155 4.881-15.246 7.292C-74.747 46.71-89.86 54.388-105 62l-2-1c6.022-3.346 12.078-6.564 18.25-9.625C-81.953 48.002-75.22 44.522-68.5 41c6.39-3.348 12.786-6.67 19.25-9.875C-32.618 22.861-15.966 14.503 0 5q-5.657 2.34-11.312 4.688l-3.19 1.318A590 590 0 0 0-35 20l-2-1 2.762-1.363C-22.736 11.926-11.36 5.988 0 0" style="fill:#d9dadd" transform="translate(1065 815)"/><path d="M0 0h2v5h2v2l6-1v2l7 1-3 2a294 294 0 0 1-10.75 2.438l-3.135.667a786 786 0 0 1-20.763 4.122C-24.872 19.2-28.89 20.62-33 22c-3.841 1.112-7.7 2.152-11.562 3.188-1.514.408-1.514.408-3.057.826Q-51.31 27.009-55 28l-3-1c16.97-6.087 33.96-12.112 51-18-4.948.554-9.683 1.304-14.5 2.563l-3.156.816L-27 13l-3-1q7.435-3.008 14.875-6l4.285-1.734 4.082-1.641 3.777-1.523z" style="fill:#e2e3e5" transform="translate(312 312)"/><path d="m0 0 7 2v2l4 1v2h5l2-1 3 3-2.75 3.625C15.734 16.012 13.34 19.49 11 23h39v1l-40 1-1 1h-41v-3H8c-2.631-7.196-2.631-7.196-5.266-14.39C1.811 6.077.904 3.539 0 1z" style="fill:#202838" transform="translate(531 566)"/><path d="m0 0 2 4 4 1 3-2-2 7-2 1-4 8-1-3-1.582 3.256C-12.918 42.573-24.341 65.842-36 89l-2 1c1.776-5.875 4.318-11.405 6.813-17l2.984-6.746 1.584-3.582C-17.463 41.906-8.43 21.073 0 0" style="fill:#e1e2e6" transform="translate(295 598)"/><path d="M0 0h6C4.647 4.332 2.98 8.326.988 12.402L-.8 16.082l-1.887 3.855-3.801 7.82-1.839 3.783C-11.287 37.661-14.16 43.821-17 50l-1-3 2-5q-3.814 6.187-7.625 12.375l-2.16 3.504A1709 1709 0 0 0-38 78l-1-2 2.133-3.863C-16.968 38.978-16.968 38.978-4 3z" style="fill:#e3e4e7" transform="translate(270 606)"/><path d="m0 0 4 1-3 1c4.276.084 7.764-.153 12-1 2.13-.08 4.263-.108 6.395-.098l3.642.01 3.776.025 3.833.014Q35.323.97 40 1v2q-3.343.972-6.687 1.938l-3.762 1.09C26.73 6.8 23.868 7.425 21 8l1 2c-10.375 2-10.375 2-16 2l3-1V8L6 7V4c-15.402 1.678-30.527 4.95-45.656 8.215l-5.094 1.098-4.484.988C-53 15-53 15-58 15c3-2 3-2 6.691-3.008l4.871-1.117 5.61-1.3 3.205-.738c5.755-1.33 11.504-2.69 17.254-4.045Q-10.185 2.392 0 0" style="fill:#c3c5cc" transform="translate(494 728)"/><path d="m0 0-2 2 1 2-3 5V6l-2-1-1 8-2 2-4-1-5 10 2 2c-11.29 3.188-22.602 6.22-34 9l-4-1 34-11 3-9c-2.631-2.947-2.631-2.947-5-4V8c-12.556 2.23-24.74 5.546-37 9l-4-1c13.209-4.177 26.55-7.82 39.938-11.375l5.121-1.373 4.843-1.275 4.36-1.154C-5 0-5 0 0 0" style="fill:#033d7d" transform="translate(281 496)"/><path d="M0 0v1l-3.468.471-4.891.666-2.662.362a15103 15103 0 0 0-20.963 2.864l-3.114.427Q-44.24 7.039-53.39 8.23c-31.86 4.202-63.424 10.116-94.875 16.687l-4.039.833-3.5.734c-3.127.505-6.033.612-9.195.516l3-2a242 242 0 0 1 9.379-2.172l2.871-.615a2457 2457 0 0 1 9.313-1.963l3.195-.675c17.565-3.708 35.173-7.075 52.884-10.016q3.19-.53 6.376-1.086c6.838-1.185 13.69-2.096 20.578-2.933 4.757-.583 9.508-1.204 14.26-1.83l10.331-1.335 5.233-.695C-18.298.49-9.358-.264 0 0" style="fill:#0158ba" transform="translate(573 142)"/><path d="M0 0v1h-134V0l25-1v-1C-72.74-4.087-36.151-3.609 0 0" style="fill:#777c86" transform="translate(1205 673)"/><path d="m0 0 2 4v5l7-7c0 3.411-.491 6.63-1 10l-1.723 2.09A731 731 0 0 0-8 32v-3l5-7-2 1c-2.644 1.058-5.298 2.1-8 3 .505-3.748 1.082-7.326 2-11l-5 5-2-1q2.153-2.658 4.313-5.312l2.425-2.989C-7.864 6.645-4.076 3.351 0 0" style="fill:#7b8290" transform="translate(1244 903)"/><path d="M0 0v3l4 1-1 3-2 2q-5.342 1.259-10.687 2.5l-3.053.723C-17.295 13.275-21.305 14-26 14l-4-5-1-5C-10.068-.592-10.068-.592 0 0" style="fill:#989da7" transform="translate(500 732)"/><path d="M0 0c3.056-.002 6.111-.02 9.167-.04 15.052-.043 29.78.89 44.584 3.85l4.008.79 2.867.585v1c-6.548.101-13.032.038-19.563-.468-13.293-.866-26.621-.9-39.937-1.094l-8.309-.131q-10.095-.159-20.191-.307v-1l-10-1v-1C-24.907.272-12.494 0 0 0" style="fill:#98b6d7" transform="translate(612.374 124.815)"/><path d="M0 0a164 164 0 0 1 9 2l2 2-4.336 1.434L.625 7.437l-3.228 1.069a832 832 0 0 0-17.534 6.03l-3.508 1.245q-3.36 1.2-6.71 2.424c-4.455 1.583-8.143 2.765-12.891 3.045L-46 21l1-3C-7.167 1.433-7.167 1.433 0 0" style="fill:#002c6f" transform="translate(968 810)"/><path d="m0 0 4.875.063v1a3666 3666 0 0 1-27.273 2.972c-39.19 4.182-78.218 10.007-117.054 16.707-5.635.95-10.93 1.535-16.673 1.32 4.68-2.34 9.136-2.923 14.25-3.625l2.836-.406q3.456-.492 6.914-.968l-3-2c7.222-1.275 14.192-2.106 21.523-2.36 10.353-.51 20.452-1.916 30.685-3.48a1139 1139 0 0 1 63.218-7.816c3.077-.297 6.152-.616 9.226-.942C-6.943.138-3.539-.045 0 0" style="fill:#013f92" transform="translate(922.125 689.938)"/><path d="M0 0h-2v2l-9 1-1 3h4l2 5-1 2a5378 5378 0 0 1-16.76 4.272q-2.85.724-5.698 1.456-4.1 1.05-8.206 2.084l-4.983 1.27c-3.643.768-6.66 1.127-10.353.918v-2l4.375-.875 2.754-.555A831 831 0 0 1-37.687 18c4.823-.89 4.823-.89 9.687-3a706 706 0 0 1 10-2c2.67-.65 5.34-1.31 8-2V9h-2l-4-4c-2.341.27-4.675.613-7 1l-4 2-3-1c-3.793 1.002-6.715 1.81-10 4h-4v3h-2l-1-3-5.25 1.5C-55.772 13.506-58.292 14-62 14l-1 3v-2l-4 1-1 2v-2l-3 1 1-3 5.563-1.39 3.581-.896 7.747-1.936A4644 4644 0 0 0-37.07 5.75C-7.242-1.81-7.242-1.81 0 0" style="fill:#5c6575" transform="translate(428 747)"/><path d="M0 0c-5.769 3.846-12.956 5.122-19.562 7.063l-4.62 1.392C-31.874 10.724-39.002 12.488-47 13c-2.57.438-5.134.914-7.687 1.438l-3.7.746a120 120 0 0 0-7.324 1.906c-3.562.985-6.611 1.06-10.289.91v-2l-2-1c13.887-3.554 27.788-6.926 41.813-9.895a566 566 0 0 0 9.562-2.117l3.75-.863 3.133-.742L-17 1l5 1 3.188-1C-5 0-5 0 0 0" style="fill:#00307c" transform="translate(1270 723)"/><path d="m0 0 1 2-1.054 2.627L-4.813 16.5l-1.658 4.133C-9.047 27.065-11.61 33.495-14 40l3-4c-.953 4.763-2.346 8.153-4.437 12.5-1.986 4.145-3.855 8.23-5.563 12.5h-1c.52-4.39 1.132-8.661 2-13v-4l-4-1L-5 5l1 3z" style="fill:#222737" transform="translate(300 608)"/></svg>