<svg xmlns="http://www.w3.org/2000/svg" width="1254" height="1254"><title>Layer 1</title><path fill="#010c1f" d="M0 0h1254v1254H0z"/><path fill="#fbfbfb" d="M882 159c3.904 1.446 7.368 3.276 10.953 5.387l1.724 1.011q2.789 1.64 5.573 3.29l3.897 2.294c11.465 6.758 22.88 13.598 34.28 20.468q3.235 1.948 6.475 3.886c11.297 6.754 22.54 13.598 33.785 20.436q5.727 3.481 11.461 6.947c17.724 10.726 35.248 21.743 52.43 33.32a615 615 0 0 0 9.469 6.234l2.51 1.637a598 598 0 0 0 4.784 3.083l2.159 1.413 1.906 1.229c1.862 1.595 2.642 3.126 3.594 5.365l-3.121 2.937-2.059 1.938-4.58 4.31-11.592 10.913c-34.71 32.684-34.71 32.684-50.023 46.777A1703 1703 0 0 0 980.5 356a1842 1842 0 0 1-16.687 15.562c-4.122 3.794-8.22 7.612-12.313 11.438a3072 3072 0 0 1-26.25 24.25A1584 1584 0 0 0 910 421.437l-2.214 2.082c-3.308 3.116-6.6 6.238-9.786 9.481l-2-1 .48-1.613c2.104-9.662.593-17.93-4.601-26.164A325 325 0 0 0 889 400l-1-3a72 72 0 0 0-4-2 72 72 0 0 1-3-2.75c-17.394-15.114-45.223-18.03-67.258-16.687-17.793 1.421-35.512 5.531-53.011 8.912-3.65.702-7.303 1.382-10.958 2.06-10.971 2.051-21.903 4.292-32.824 6.595-5.99 1.263-11.99 2.472-17.999 3.643-23.628 4.625-46.963 9.857-69.68 17.899-7.56 2.649-14.248 4.772-22.331 5.043-2.966.288-5.185.961-7.962 2.012-9.195 3.183-18.726 4.997-28.227 7.023l-5.762 1.246A5216 5216 0 0 1 551 433c2.094 0 4.202-.476 6.263-.794l3.411-.527 15.577-2.414q5.106-.793 10.21-1.58l9.812-1.52 3.663-.566c6.289-.979 12.552-2.025 18.802-3.229 2.96-.484 5.772-.458 8.762-.308 6.743.127 13.057-.778 19.664-1.995 5.363-.96 10.385-1.197 15.836-1.067l-4 2q4.688-.682 9.375-1.375l2.782-.41c5.312-.793 10.559-1.672 15.773-2.98 2.07-.235 2.07-.235 4.761.31 3.725.512 6.618.136 10.317-.506l1.963-.333c2.053-.351 4.103-.716 6.154-1.081q2.076-.357 4.152-.71c6.494-1.06 6.494-1.06 12.91-2.488 2.92-.688 5.83-.484 8.813-.427-2.63 1.394-5.104 2.406-7.984 3.148l-2.31.602-2.456.625-2.555.662a1305 1305 0 0 1-12.011 3.037l-2.05.509q-2.716.668-5.435 1.327c-56.836 13.885-56.836 13.885-99.199 51.902-7.978 13.763-14.62 28.311-21.452 42.664a4058 4058 0 0 1-13.048 27.086l-1.116 2.3a2271 2271 0 0 1-14.566 29.482c-3.639 7.244-7.13 14.554-10.607 21.878-3.964 8.325-8.076 16.572-12.24 24.799-1.916 3.797-3.795 7.569-5.471 11.479-2.544 5.937-5.554 11.647-8.473 17.406l-1.433 2.844c-.64 1.26-.64 1.26-1.291 2.547-1.234 2.559-2.348 5.153-3.456 7.768-1.632 3.728-3.444 7.37-5.234 11.025l-1.275 2.613-2.67 5.463q-2.004 4.097-4.002 8.195A3160 3160 0 0 1 480 722l-4 8c-1.36-4.078.151-6.523 1.746-10.293l.879-2.14c.928-2.255 1.87-4.505 2.813-6.755l1.892-4.583A2522 2522 0 0 1 488 695l-1.426 2.852L478 715c-1-2-1-2-.243-4.303l1.227-2.861 1.336-3.152 1.43-3.309q1.37-3.206 2.734-6.414c.44-1.03.878-2.06 1.33-3.122a216 216 0 0 0 3.456-8.872c2.898-7.803 6.185-15.45 9.48-23.092l1.246-2.898q1.5-3.49 3.004-6.977c-2.296 2.296-3.367 5.98-4.719 8.926l-1.132 2.454a6580 6580 0 0 0-3.649 7.933l-2.507 5.442c-4.31 9.366-8.594 18.742-12.798 28.156-3.652 8.155-7.428 16.252-11.202 24.35a2219 2219 0 0 0-7.825 16.938 1643 1643 0 0 1-40.434 82.49c-2.86 5.462-5.683 10.944-8.51 16.425a3420 3420 0 0 1-23.332 44.458 9422 9422 0 0 1-5.36 10.025c-3.26 6.095-6.488 12.197-9.532 18.403-1-2-1-2-.534-3.765l.827-2.13.904-2.373.99-2.544c2.06-5.42 4.079-10.8 5.688-16.375 4.382-14.664 9.956-29.093 16.737-42.812 1.785-3.339 1.785-3.339 2.388-7.001l-1.398 2.684a461 461 0 0 1-13.1 23.327c-2.368 3.96-4.51 7.964-6.542 12.107-1.426 2.796-3.09 5.421-4.772 8.07-4.031 6.458-7.656 13.068-11.188 19.812-1.262-3.787-.54-4.64 1.098-8.2l1.42-3.137 1.545-3.35c4-8.881 7.737-17.721 11.048-26.882 9.8-26.811 20.33-53.329 31.889-79.431-1.497 2.246-2.96 4.5-4.398 6.781l-1.433 2.27-1.544 2.449-1.62 2.565q-3.977 6.298-7.939 12.607A1666 1666 0 0 1 375.5 836.5c-8.641 13.21-17.098 26.521-25.312 40-6.605 10.832-6.605 10.832-9.125 14.875l-1.528 2.46c-1.645 2.32-3.473 4.214-5.535 6.165 1.434-4.708 3.385-9.008 5.625-13.375l2.164-4.273 1.114-2.19c1.715-3.38 3.406-6.771 5.097-10.162q3.093-6.2 6.21-12.387l1.099-2.181q1.035-2.06 2.078-4.118A122 122 0 0 0 362 841l-1.158 2.256a6462 6462 0 0 1-5.342 10.369l-.976 1.892c-3.44 6.657-6.894 13.282-10.711 19.733-4.016 6.852-7.338 14.005-10.728 21.183-2.778 5.872-5.61 11.7-8.647 17.442l-.977 1.873c-2.216 4.13-2.216 4.13-4.461 5.252 1.253-3.987 2.713-7.657 4.61-11.379l1.528-3.022 1.612-3.161c5.872-11.643 11.503-23.186 16.082-35.41 1.354-3.51 2.871-6.918 4.469-10.321.825-1.708.825-1.708.699-3.707l-1.836 2.973-2.539 4.09-1.191 1.931c-5.781 9.294-11.964 18.33-18.066 27.415C313.609 906.428 303.103 922.556 293 939l-2.523 4.09q-1.95 3.161-3.891 6.328c-2.175 3.54-4.378 7.063-6.586 10.582l-1-2c.925-2.395.925-2.395 2.387-5.383l1.595-3.289 1.706-3.453 1.646-3.383c2.293-4.703 4.611-9.392 6.97-14.062 1.499-3.03 2.707-6.005 3.856-9.172 2.437-6.551 5.13-12.986 8.34-19.195 2.453-4.792 4.354-9.72 6.246-14.754 2.475-6.53 5.026-13.049 8.254-19.246 2.218-4.304 3.873-8.795 5.559-13.329 3.919-10.31 8.467-20.362 12.971-30.426a2332 2332 0 0 0 17.503-40.08c3.039-7.127 6.19-14.176 9.565-21.15 1.657-3.638 3.032-7.322 4.402-11.078l-.895 1.746c-5.671 11.034-11.444 21.985-17.605 32.754-6.03 10.546-11.666 21.27-17.24 32.063C328.888 826.95 323.088 837.02 317 847c-1-3-1-3 .074-5.348l1.614-2.714c2.46-4.322 4.5-8.568 6.26-13.212 3.577-9.27 7.62-18.347 11.677-27.413l3.195-7.168 1.615-3.623c2.37-5.334 4.719-10.677 7.065-16.022a3726 3726 0 0 1 9.522-21.515c16.732-37.49 32.866-75.25 49.119-112.95A6878 6878 0 0 1 436 571l1.937-4.369A9553 9553 0 0 1 460.75 515.5l1.078-2.401a1815 1815 0 0 0 15.507-35.55c2.088-4.929 4.179-9.807 6.665-14.549l-3.184.805C458.94 469.319 458.94 469.319 454 469c2.897-1.931 5.188-2.84 8.473-3.91l3.224-1.06 3.366-1.092 6.597-2.16 2.957-.962c2.36-.75 2.36-.75 4.383-1.816v-4l-1.699.456c-12.7 3.392-25.428 6.57-38.254 9.45-4.994 1.129-9.938 2.323-14.863 3.723-4.143 1.152-8.073 1.79-12.372 2.121-10.372 1.04-20.158 4.39-30.083 7.432-3.515 1.054-7.048 1.975-10.604 2.88-6.533 1.69-12.88 3.813-19.226 6.096-5.577 1.95-5.577 1.95-8.899.842 16.391-7.014 16.391-7.014 22.813-8.562 4.89-1.214 8.93-3.27 13.375-5.61 8.598-4.299 17.837-7.413 26.812-10.828a354 354 0 0 0-21.182 4.764c-5.489 1.346-5.489 1.346-8.818.236.975-.378 1.95-.755 2.953-1.145a6822 6822 0 0 0 33.298-13.034c5.9-2.322 11.804-4.62 17.749-6.821-29.96 5.42-59.441 13.073-88.523 22.031-8.426 2.59-16.935 4.805-25.477 6.969-16.592 4.25-32.965 9.237-49.18 14.748-3.838 1.279-7.717 2.402-11.605 3.518-8.55 2.486-17 5.237-25.439 8.073q-3.552 1.193-7.106 2.376l-4.611 1.543-2.1.7a344 344 0 0 0-12.126 4.354 246 246 0 0 1-7.224 2.555c-8.976 3.076-17.884 6.132-26.59 9.918-4.705 1.893-9.523 3.438-14.352 4.985-7.466 2.412-14.67 5.4-21.913 8.406l-5.191 2.137-2.678 1.126-2.569 1.05-2.298.954C123 542 123 542 120 541l2.535-1.398c8.308-4.635 16.238-9.657 24.103-15.006 3.784-2.557 7.588-5.084 11.39-7.615q6.619-4.411 13.226-8.84C192.774 493.725 214.328 479.56 237 467l2.915-1.622C253.709 457.727 267.669 450.593 282 444c-10.7 3.674-21.355 7.388-31.822 11.69-4.327 1.738-8.532 2.869-13.096 3.807-2.856.69-5.342 1.868-7.957 3.19-2.742 1.387-2.742 1.387-5.125 2.313l-3-1c27.738-13.954 55.617-27.405 84-40l5.352-2.379L314 420l-2.247.658c-3.353.977-6.71 1.941-10.066 2.905l-3.537 1.037-3.388.966-3.126.905C289 427 289 427 286 426l2.706-1.238q4.977-2.281 9.947-4.579 2.15-.991 4.303-1.975 3.098-1.419 6.189-2.853l1.941-.88c3.195-1.49 5.497-2.94 7.914-5.475 2.093-1.096 2.093-1.096 4.574-2.137l2.9-1.225 3.214-1.325 3.406-1.42q4.854-2.01 9.72-3.999 3.448-1.411 6.895-2.827c20.543-8.42 41.076-16.482 62.291-23.067l-2.762.7-3.925.988-2.125.534a856 856 0 0 1-12.75 3.087l-2.83.663q-2.754.644-5.511 1.277c-3.456.808-6.685 1.577-9.96 2.962C370 384 370 384 366 383l14-6c-6.524 1.575-12.883 3.162-19.16 5.547C359 383 359 383 356 382c13.435-5.552 26.886-10.751 40.717-15.231 6.65-2.172 13.025-4.61 19.408-7.48 2.56-1.147 5.128-2.172 7.75-3.164 4.504-1.766 8.76-3.926 13.063-6.125 5.484-2.8 10.919-5.225 16.761-7.207 2.512-.829 2.512-.829 5.676-2.293 3.04-1.258 5.969-2.248 9.113-3.191a924 924 0 0 0 16.969-5.368l2.541-.828 7.815-2.55c10.278-3.358 20.559-6.7 30.886-9.904A508 508 0 0 0 540.875 314c6.786-2.297 13.616-4.307 20.53-6.18a336 336 0 0 0 14.158-4.195c10.002-3.187 20.125-5.952 30.243-8.743q4.67-1.291 9.339-2.593l5.793-1.601 2.63-.735c3.963-1.087 7.894-2.066 11.936-2.808 4.765-.91 9.382-2.203 14.043-3.532 8.834-2.506 17.72-4.538 26.703-6.425l4.824-1.026q4.993-1.06 9.987-2.114a1794 1794 0 0 0 11.89-2.562c34.617-7.564 69.543-13.442 104.543-18.935 3.655-.574 7.31-1.158 10.963-1.742q3.552-.562 7.106-1.121l3.247-.521c4.774-.743 9.34-1.39 14.19-1.167-3.411 1.976-6.614 2.59-10.488 3.219l-3.83.636-3.994.645q-3.903.634-7.801 1.281l-3.494.565c-3.54.682-6.934 1.642-10.393 2.654q-3.334.565-6.687 1c-6.463.873-12.887 1.894-19.313 3 6.5-.398 12.898-.907 19.313-2.062 4.664-.837 8.956-1.12 13.687-.938-3.173 1.778-6.12 2.564-9.684 3.254l-3.31.65-3.443.659c-1.133.22-2.265.442-3.432.67q-3.164.617-6.332 1.226-3.902.755-7.799 1.541c14.107-1.713 28.19-3.612 42.273-5.501q3.704-.496 7.407-.986 10.813-1.432 21.612-2.96c32.194-4.549 64.27-8.234 96.708-10.553-4.442-5.639-6.997-8.163-14.25-9.187l-3.266-.481L924 236v-1h18c-3.426-4.282-4.8-5.542-9.3-7.945-2.755-1.71-4.368-4.018-6.262-6.617l-1.25-1.69a515 515 0 0 1-2.718-3.72 756 756 0 0 0-4.732-6.438 3350 3350 0 0 1-8.91-12.1q-3.616-4.923-7.243-9.836-2.616-3.548-5.23-7.1-3.333-4.527-6.68-9.046l-3.05-4.133-1.427-1.92C882 160.112 882 160.112 882 159"/><path fill="#f8f7f8" d="M781 723c9.1.459 17.655 2.052 26.5 4.188l1.993.474c10.356 2.466 20.575 5.239 30.72 8.466a700 700 0 0 0 9.928 3c11.633 3.485 23.026 6.909 33.886 12.407 2.704 1.332 5.296 2.3 8.16 3.215 22.106 7.732 44.171 23.144 54.813 44.25 2.783 5.834 2.534 11.653 2 18-1.328 3.561-2.355 5.355-5 8l-1.063 3c-2.336 5.63-6.72 9.717-10.937 14l-2.215 2.254c-6.946 6.638-14.918 11.538-23.022 16.612A73 73 0 0 0 901 865l6-2v2l1.529-.842c2.277-1.249 4.562-2.485 6.846-3.72l2.406-1.327 2.305-1.24 2.126-1.158L924 856l2 1c-16.144 10.337-32.717 19.703-50 28l-2.734 1.32c-30.526 14.676-61.973 27.447-93.566 39.63-2.52.98-5.029 1.983-7.536 2.995-7.167 2.88-14.411 5.564-21.644 8.273-8.757 3.266-8.757 3.266-17.348 6.934-4.35 1.986-8.804 3.47-13.36 4.91-5.194 1.645-9.943 3.461-14.812 5.938a257 257 0 0 1-7.5 2.687q-2.274.788-4.547 1.579l-2.432.845c-4.44 1.565-8.853 3.203-13.271 4.826a699 699 0 0 1-25.286 8.717A148 148 0 0 0 638 979c-6.902 2.693-13.919 4.923-21.008 7.066-3.02.943-5.955 2.006-8.902 3.153-3.617 1.352-7.295 2.522-10.965 3.718-3.016 1.026-5.99 2.14-8.972 3.261-3.303 1.23-6.627 2.4-9.954 3.568l-2.206.776-4.636 1.63q-3.498 1.23-6.995 2.463c-17.918 6.315-35.844 12.591-53.885 18.55-6.92 2.287-13.826 4.61-20.72 6.98l-2.457.844-2.501.86c-30.777 10.579-61.702 20.729-92.739 30.519-4.88 1.55-9.72 3.182-14.544 4.897l-3.246 1.152q-3.058 1.095-6.106 2.215l-2.719.977-2.39.877C361 1073 361 1073 358 1072l2.183-.94q5.284-2.277 10.567-4.56l1.992-.86a2361 2361 0 0 0 24.738-10.855l2.392-1.066a5158 5158 0 0 0 11.527-5.16A611 611 0 0 1 439 1037c-7.957 1.77-15.7 3.844-23.426 6.457l-1.985.671q-4.977 1.69-9.94 3.43c-6.654 2.29-12.632 3.94-19.649 4.442l-2.812 1.125c-2.592 1.037-3.583.65-6.188-.125l3.437-1.405q6.366-2.604 12.731-5.211l5.49-2.246q3.967-1.622 7.932-3.247l2.444-.998A509 509 0 0 0 423 1033l-2-1c7.365-3.835 14.875-7.119 22.563-10.25q1.86-.762 3.718-1.527l6.048-2.482c8.319-3.412 16.62-6.865 24.923-10.313q9.115-3.783 18.233-7.557 4.092-1.696 8.182-3.394c12.344-5.124 24.754-9.96 37.333-14.477a1287 1287 0 0 0-27.245 6.582c-9.761 2.469-19.507 4.865-29.377 6.86-16.783 3.438-33.402 7.77-50.01 11.964-3.018.757-6.039 1.503-9.06 2.25l-3.7.918a4759 4759 0 0 1-7.237 1.79c-5.774 1.435-11.51 2.945-17.223 4.609-8.42 2.436-16.931 4.437-25.46 6.452-7.817 1.85-15.587 3.793-23.317 5.981-10.617 3.001-21.334 5.573-32.058 8.157-11.346 2.739-22.682 5.479-33.949 8.528-5.443 1.471-10.904 2.874-16.364 4.284a7942 7942 0 0 0-22.32 5.8q-4.099 1.07-8.2 2.134c-4.39 1.141-8.775 2.3-13.159 3.466q-4.804 1.273-9.613 2.531-2.383.628-4.764 1.266c-2.233.598-4.469 1.184-6.706 1.768l-2.036.554c-3.379.869-5.891 1.398-9.202.106 33.089-10.907 33.089-10.907 50-15-5.576.593-10.795 1.598-16.2 3.066q-2.332.612-4.665 1.221c-2.406.634-4.811 1.272-7.213 1.923-9.856 2.657-18.639 4.52-28.922 3.79 2.45-2.87 4.831-3.898 8.355-5.164l3.29-1.198 3.543-1.263q3.695-1.34 7.39-2.684l1.891-.683c6.012-2.173 11.99-4.432 17.969-6.696 16.387-6.168 32.934-11.83 49.562-17.312l-5.957 1.55c-2.388.526-4.606.602-7.043.45 3.056-2.038 5.11-2.666 8.645-3.516l3.457-.844 3.71-.89q3.84-.94 7.676-1.887l3.858-.95c12.195-3.046 24.293-6.46 36.342-10.038l2.355-.696a197 197 0 0 0 12.215-4.124c6.215-2.291 12.543-4.061 18.93-5.805l3.462-.957q4.174-1.153 8.35-2.293a3451 3451 0 0 0-32.182 6.864 2681 2681 0 0 1-16.361 3.527q-5.98 1.269-11.957 2.546l-2.419.517c-10.86 2.328-21.644 4.826-32.345 7.82-4.004 1.105-7.534 2.07-11.736 1.726 2.369-2.369 3.726-2.6 6.953-3.367l3.045-.74 3.252-.768c6.795-1.644 13.556-3.296 20.25-5.313 4.442-1.308 8.819-2.267 13.383-3.042 11.304-2.031 22.379-5.023 33.492-7.895l6.29-1.61c9.462-2.425 18.916-4.88 28.354-7.4 14.43-3.852 28.869-7.631 43.376-11.181l2.175-.533q8.715-2.13 17.435-4.246a7397 7397 0 0 0 15.265-3.721l2.142-.525c11.305-2.777 22.526-5.797 33.736-8.936a576 576 0 0 1 27.665-6.973 6046 6046 0 0 0 10.224-2.355c6.62-1.532 13.207-3.183 19.794-4.848 3.971-1.002 7.945-1.992 11.919-2.985l5.094-1.273 12.87-3.217 5.05-1.263a5016 5016 0 0 1 11.62-2.896 973 973 0 0 0 23.804-6.226c9.503-2.59 19.04-4.978 28.625-7.25 9.412-2.23 18.728-4.65 28.007-7.38a247 247 0 0 1 15.493-3.995c8.002-1.796 15.843-4.077 23.7-6.425a457 457 0 0 1 15.788-4.414c10.514-2.783 20.883-6.04 31.262-9.286 1.06-.33 2.119-.662 3.21-1.003C785.729 884.466 802.966 878.671 820 872l3.44-1.341c27.544-10.805 55.297-22.02 78.56-40.659l2.078-1.578c4.762-3.768 7.81-8.246 10.922-13.422l1.875-2.813c2.162-6.126 1.827-12.518.188-18.75C905.8 771.91 882.073 762.09 861 753l-3.559-1.54A388 388 0 0 0 849 748c-.871-.345-1.743-.69-2.64-1.047-6.355-2.415-12.797-4.18-19.376-5.879-4.837-1.274-9.595-2.785-14.354-4.324-4.509-1.446-9.03-2.64-13.63-3.75v-3c-4.334-2.032-8.286-2.52-13-3v-2l-5-1z"/><path fill="#011e57" d="M797 748c6.677 1.37 13.045 3.195 19.5 5.375l2.684.883a146 146 0 0 1 14.517 5.711c4.23 1.897 8.552 3.573 12.862 5.281l2.767 1.102q3.334 1.326 6.67 2.648l-1-2c13.948 3.77 26.34 13.643 35 25l1 2c-.557-3.344-1.352-6.033-3-9 5.806 2.286 8.507 7.539 11 13 1.452 7.578.217 14.555-4 21-10.31 13.419-24.6 23.141-40.395 29.016-3.143 1.187-6.21 2.52-9.293 3.859-10.511 4.515-21.07 8.742-31.875 12.5l-2.501.879a619 619 0 0 1-14.034 4.723L790.875 872l-2.893.896c-4.762 1.454-4.762 1.454-8.036 4.913-.676 2.13-.676 2.13-.946 5.191h4l1 3c-29.549 9.204-59.037 18.319-89.039 25.945a2823 2823 0 0 0-22.945 5.934l-2.812.74a8982 8982 0 0 0-10.972 2.893c-9.474 2.505-18.95 4.959-28.507 7.132-5.731 1.313-11.34 2.924-16.967 4.622C610 934 610 934 607 934v-2h4v-2l-3-1c-1.187-2.563-1.187-2.563-2-5l1-1a398 398 0 0 0-5.187-.125l-2.918-.07c-3.074.207-5.073 1.006-7.895 2.195-2.2.48-4.41.912-6.625 1.312-10.437 1.97-20.732 4.694-30.902 7.747-4.7 1.274-9.44 2.023-14.244 2.796-4.254.713-8.134 1.76-12.229 3.145q-2.927.501-5.875.875c-7.03 1.028-13.828 2.705-20.693 4.494-12.574 3.264-25.13 6.482-37.893 8.916-4.083.825-8.122 1.775-12.164 2.777l-2.012.493c-2.775.7-5.422 1.469-8.078 2.543-2.823 1.114-5.553 1.218-8.555 1.484-4.566.7-8.906 2.178-13.3 3.578-3.6.882-6.738.986-10.43.84 1.875-5.75 1.875-5.75 3-8l-1.871.402A158 158 0 0 1 392 961c2.575-2.575 4.67-2.932 8.176-3.918l1.905-.54c2.075-.584 4.153-1.157 6.232-1.73l2.158-.6c12.612-3.515 25.294-6.654 38.037-9.661a526 526 0 0 0 16.18-4.114c8.282-2.226 16.621-4.16 24.983-6.062 8.422-1.92 16.814-3.946 25.204-6 9.924-2.42 19.856-4.64 29.89-6.55C549.2 920.974 553.599 920 558 919l3.035-.686 6.95-1.572a6238 6238 0 0 1 30.316-6.805l2.34-.517q4.647-1.029 9.295-2.055c10.026-2.215 20.035-4.477 29.99-6.994 4.423-1.094 8.41-2.077 12.887-.89 16.553 3.93 35.503-1.857 51.292-6.618a100 100 0 0 1 6.957-1.8c3.44-.82 6.601-2.108 9.875-3.438 5.932-2.348 11.827-3.864 18.032-5.243 4.414-.985 8.649-2.142 12.906-3.655C762.775 875 762.775 875 768 875l-1-4 2-1c-8.495 1.399-16.788 3.364-25.125 5.5-13.897 3.537-13.897 3.537-20.569 4.981-2.814.633-5.61 1.329-8.408 2.027l-3.234.8q-3.303.821-6.601 1.657c-5.488 1.348-10.407 2.408-16.063 2.035 2.68-2.68 5.544-2.961 9.125-3.75 5.773-1.343 11.194-3.034 16.688-5.25 6.719-2.685 13.43-4.315 20.542-5.62 4.367-.815 8.314-1.925 12.442-3.56 4.64-1.726 9.447-2.958 14.203-4.32 61.912-15.438 61.912-15.438 109.438-52.25 2.217-5.016 2.529-9.877 1.562-15.25-4.68-11.957-15.467-18.644-26-25-.732-.48-1.464-.96-2.219-1.453-12.548-8.041-26.916-13.507-40.953-18.34-5.727-2.004-5.727-2.004-6.828-4.207"/><path fill="#0a2b6a" d="M963 788c10.167 4.603 18.961 15.089 23 25.375 3.364 12.314.293 23.159-5.812 33.938C968.723 864.448 949.253 876.359 932 887l-1.731 1.068c-4.393 2.696-8.826 5.32-13.269 7.932l-2.34 1.387c-12.697 7.51-25.645 14.155-39.025 20.363-3.584 1.7-7.11 3.509-10.632 5.334C863 924 863 924 861 924v2l2 1q-4.23 2.115-8.46 4.223a520 520 0 0 0-6.892 3.523c-7.527 3.885-15.063 7.029-23.015 9.914-4.311 1.59-8.469 3.405-12.633 5.34-10.087 4.543-20.238 8.946-30.527 13.012a522 522 0 0 0-8.16 3.363c-7.808 3.266-15.674 6.383-23.538 9.51a1915 1915 0 0 0-17.44 7.072c-9.643 3.951-19.284 7.849-29.073 11.426-3.592 1.336-7.135 2.78-10.68 4.234l-3.443 1.406q-3.406 1.395-6.802 2.815l-3.138 1.283-2.817 1.17C674 1006 674 1006 671 1005l7-3c-6.783-.46-11.39.975-17.562 3.687l-2.83 1.202q-3.11 1.32-6.21 2.656a1115 1115 0 0 1-10.921 4.596c-14.7 6.08-14.7 6.08-29.27 12.457-21.24 9.602-43.4 16.747-65.457 24.214l-8.59 2.91q-2.837.963-5.676 1.92c-12.538 4.238-24.961 8.643-37.215 13.654l-2.835 1.141-2.405.997C487 1072 487 1072 484 1071l3.626-1.478c27.123-11.022 27.123-11.022 54.124-22.335 26.634-11.318 53.475-21.672 80.708-31.464a1614 1614 0 0 0 21.98-8.098l2.828-1.063c3.927-1.483 7.845-2.98 11.734-4.562l-2-1v-2l-3-1c3.245-2.04 6.406-3.665 10-5v-3l2.93-1.172 1.895-.758 4.133-1.652c2.952-1.178 5.902-2.36 8.843-3.566A190 190 0 0 1 695.062 978c4.307-1.406 8.365-3.034 12.47-4.938 3.066-1.32 6.19-2.403 9.343-3.5 5.321-1.863 10.395-3.991 15.496-6.382 3.48-1.561 7.036-2.82 10.629-4.09 3.446-1.252 6.85-2.597 10.25-3.965l1.917-.771 3.885-1.567a4050 4050 0 0 1 11.456-4.605 818 818 0 0 1 12.18-4.745c7.386-2.825 14.675-5.87 21.937-9 8.7-3.705 17.543-7.06 26.375-10.437l-2.012.691-2.675.871-2.637.88c-2.676.558-2.676.558-5.035-.04-3.869-.59-6.757 1.026-10.203 2.598-7.341 3.33-7.341 3.33-11.438 2a655 655 0 0 1 19.547-7.945c16.042-6.207 31.894-12.607 47.403-20.07q3.566-1.711 7.136-3.415a3488 3488 0 0 0 14.67-7.06q2.937-1.42 5.877-2.831c11.313-5.44 22.277-11.177 32.949-17.8C934.069 866 934.069 866 939 866c1.707-.905 1.707-.905 3.375-2.187l1.71-1.231c2.47-2.04 4.659-4.309 6.915-6.582a825 825 0 0 1 5.875-5.375q1.597-1.463 3.191-2.93a696 696 0 0 1 5.024-4.578c6.507-6.109 13.256-14.886 14.21-23.984.043-10.829-3.109-16.365-10.3-24.133a552 552 0 0 1-3.437-4z"/><path fill="#0c53d9" d="M863 738c7.652.523 14.877 1.97 22.313 3.813l3.348.813a272 272 0 0 1 19.519 5.581c3.063.861 6.041 1.316 9.195 1.73 6.792.94 12.924 3.024 19.373 5.295 3.49 1.19 7.015 2.27 10.537 3.364 8.784 2.735 17.307 5.652 25.715 9.404q2.704 1.163 5.41 2.32c53.16 22.791 53.16 22.791 62.73 41.965 1.027 3.243 1.125 6.005 1.11 9.402l.016 3.45C1042 828 1042 828 1040 830l-.078-2.125c-.575-9.623-3.352-16.798-10.602-23.406-4.491-3.68-8.553-5.32-14.144-6.754-2.813-.924-4.106-2.645-6.176-4.715-2.959-.928-5.942-1.503-9-2l2.09 1.582c11 8.617 22.464 19.832 24.281 34.39.403 18.76-10.133 31.184-22.371 44.028l-2.008 2.238c-32.302 34.721-84.033 59.581-126.534 79.174-4.839 2.246-9.363 4.642-13.8 7.61-2.132 1.257-4.248 1.51-6.658 1.978l-1.793 1.875c-2.49 2.397-4.557 3.326-7.77 4.563a198 198 0 0 0-11.148 4.718c-7.53 3.448-15.17 6.633-22.805 9.837q-3.819 1.605-7.634 3.212c-14.149 5.953-14.149 5.953-21.276 8.773-5.552 2.205-11.081 4.465-16.616 6.713l-6.456 2.62-4.17 1.693-1.917.777a252 252 0 0 0-8.873 3.781c-3.204 1.301-6.204 2.143-9.55 2.926-3.222.828-6.281 2.062-9.36 3.305l-2.04.81q-2.137.85-4.275 1.706-3.32 1.33-6.646 2.645a2884 2884 0 0 0-18.734 7.495l-2.531 1.013q-2.214.886-4.417 1.797c-4.65 1.854-4.65 1.854-7.989.741l28.809-12.89 2.378-1.065 4.552-2.037c2.342-1.044 4.687-2.081 7.032-3.119a254 254 0 0 0 9.084-4.229c12.893-6.286 25.937-12.11 39.113-17.767l3.751-1.611c6.266-2.695 12.483-5.495 18.694-8.315a581 581 0 0 1 14.087-6.154c5.186-2.199 10.208-4.608 15.195-7.223 2.889-1.39 5.78-2.619 8.746-3.828 7.27-3 14.312-6.43 21.371-9.887q4.15-2.023 8.301-4.043l2.065-1.006c4.86-2.366 9.739-4.687 14.628-6.992 26.373-12.452 52.37-25.976 77.319-41.084l2.838-1.717c6.181-3.786 12.15-7.806 18.037-12.033l3.11-2.23c17.45-12.933 33.782-26.446 40.89-47.77.79-11.818-.2-20.476-7.871-29.684-14.522-15.8-33.203-24.895-52.129-34.316l2-1a259 259 0 0 1 5.18 2.297c2.336.902 4.343.928 6.82.703l-4-2v-2l-2.616-.366c-3.37-.631-6.317-1.577-9.525-2.779l-3.496-1.302-3.613-1.365-3.566-1.33c-5.24-1.962-10.463-3.956-15.649-6.057A120 120 0 0 0 919.687 755l-3.316-.992L913 753l-6.75-2.125a139 139 0 0 0-12.898-3.32c-3.99-.941-7.87-2.239-11.778-3.47-6.145-1.866-12.359-3.469-18.574-5.085z"/><path fill="#042a73" d="m819 939 1 3c-3.837 6.14-8.942 9.238-15.566 11.852l-2.694 1.067L799 956a6456 6456 0 0 0-7.38 2.942c-7.255 2.895-14.493 5.818-21.694 8.843-6.686 2.776-13.424 5.425-20.151 8.1a1915 1915 0 0 0-17.44 7.072c-9.643 3.951-19.284 7.849-29.073 11.426-3.592 1.336-7.135 2.78-10.68 4.234l-3.443 1.406q-3.406 1.395-6.802 2.815l-3.138 1.283-2.817 1.17C674 1006 674 1006 671 1005l7-3c-6.783-.46-11.39.975-17.562 3.687l-2.83 1.202q-3.11 1.32-6.21 2.656a1115 1115 0 0 1-10.921 4.596c-14.7 6.08-14.7 6.08-29.27 12.457-21.24 9.602-43.4 16.747-65.457 24.214l-8.589 2.91q-2.838.963-5.677 1.92c-12.538 4.238-24.961 8.643-37.215 13.654l-2.835 1.141-2.405.997C487 1072 487 1072 484 1071l3.626-1.478c27.123-11.022 27.123-11.022 54.124-22.335 26.634-11.318 53.475-21.672 80.708-31.464a1614 1614 0 0 0 21.98-8.098l2.828-1.063c3.927-1.483 7.845-2.98 11.734-4.562l-2-1v-2l-3-1c3.245-2.04 6.406-3.665 10-5v-3l2.93-1.172 1.895-.758 4.133-1.652c2.952-1.178 5.902-2.36 8.843-3.566A190 190 0 0 1 695.063 978c4.306-1.406 8.364-3.034 12.468-4.938 3.067-1.32 6.19-2.403 9.344-3.5 5.321-1.863 10.395-3.991 15.496-6.382 3.48-1.561 7.036-2.82 10.629-4.09 3.446-1.252 6.85-2.598 10.25-3.965l1.901-.76a592 592 0 0 0 9.931-4.084l2.02-.84a991 991 0 0 0 5.558-2.34c3.343-1.102 5.85-1.324 9.34-1.101v3l5.792-1.931q2.47-.823 4.942-1.642a530 530 0 0 0 10.887-3.716c5.352-1.895 9.687-3.228 15.379-2.711"/><path fill="#3f4653" d="m803 648 2 3-13 1v2l-2.92.44c-47.487 7.1-47.487 7.1-93.022 21.784C694 677 694 677 692 677l-1 3c-2.701 1.65-5.5 3-8.336 4.402-2.725 1.634-4.064 2.881-5.664 5.598-.583 3-.583 3 0 6 1.875 2.377 1.875 2.377 4 4-7.296-1.87-12.645-3.468-17-10l-1 4c4.534 3.554 8.714 4.912 14.316 6.191 2.684.809 2.684.809 4.926 2.277 3.242 1.801 5.91 2.293 9.574 2.856l2.038.325q2.197.348 4.395.684c4.025.617 8.044 1.27 12.063 1.92l2.59.417c9.46 1.53 18.89 3.22 28.318 4.938q2.796.509 5.594 1.014A1111 1111 0 0 1 784 722v2l2 1v2l3.563-.187c4.477-.024 7.461 1.2 11.437 3.187l-2 2c-7.566-.355-14.915-2.165-22.295-3.782-3.68-.804-7.365-1.588-11.049-2.374l-2.24-.479c-16.481-3.517-32.835-6.673-49.617-8.378-5.613-.573-11.068-1.363-16.588-2.534-2.908-.596-5.828-.967-8.774-1.328-6.075-.835-11.931-2.117-17.875-3.589-6.023-1.47-12.077-2.564-18.206-3.497-5.145-.828-5.145-.828-7.356-3.039l5-1c-3.093-1.146-3.093-1.146-6.875-1.437-5.288-.63-8.962-2.233-13.125-5.563l-3-2c2-3 2-3 3-4l-3-1c3.126-2.645 6.088-3.844 10-5h-10v-3l2.973-.734c4.345-1.077 8.687-2.169 13.027-3.266l2.053-.518c7.423-1.883 14.645-3.939 21.775-6.748C669 668 669 668 672 668v-2q6.242-1.395 12.488-2.777 5.812-1.287 11.617-2.602l6.145-1.371 2.955-.675c4.68-1.036 8.966-1.867 13.795-1.575l-3 2c8.772-.512 17.248-1.609 25.875-3.25q3.673-.672 7.348-1.34l3.836-.699c6.082-1.101 12.17-2.169 18.267-3.188 1.92-.324 3.836-.661 5.754-.999 8.472-1.404 17.338-2.596 25.92-1.524"/><path fill="#0050e0" d="M656 906v2l-2.032.519q-4.579 1.174-9.155 2.356l-3.198.816-3.095.801-2.841.73c-2.698.736-2.698.736-5.294 1.826-3.285 1.311-6.665 1.81-10.135 2.39-5.247.924-10.172 2.045-15.187 3.878-3.112 1.032-6.291 1.563-9.508 2.164-2.48.505-4.873 1.137-7.305 1.832-10.174 2.857-20.562 5.056-30.897 7.25-4.002.535-4.002.535-7.353 2.438-3.486.66-6.976 1.242-10.479 1.807-4.353.728-8.331 1.77-12.521 3.193q-2.927.501-5.875.875c-7.03 1.028-13.828 2.705-20.693 4.494-12.574 3.264-25.13 6.482-37.893 8.916-4.083.825-8.122 1.775-12.164 2.778l-2.012.492c-2.775.7-5.422 1.469-8.078 2.543-2.823 1.114-5.553 1.218-8.555 1.484-4.566.7-8.906 2.178-13.3 3.578-3.6.882-6.738.986-10.43.84 1.875-5.75 1.875-5.75 3-8l-1.871.402A158 158 0 0 1 392 961c2.575-2.575 4.67-2.932 8.176-3.918l1.905-.54c2.075-.584 4.153-1.157 6.232-1.73l2.158-.6c12.612-3.515 25.294-6.654 38.037-9.661a526 526 0 0 0 16.18-4.114c8.282-2.226 16.621-4.16 24.983-6.062 8.422-1.92 16.814-3.946 25.204-6 9.924-2.42 19.856-4.64 29.89-6.55 6.776-1.301 13.465-2.878 20.157-4.552 15.188-3.724 29.325-6.38 45.078-5.273l-2 2c5.394-.575 10.456-1.553 15.688-3 6.2-1.648 12.105-2.512 18.542-2.727 4.974-.49 8.58-2.514 13.77-2.273"/><path fill="#272e3d" d="M690 741c9.534-.892 17.21 1.824 26 5 4.106 1.32 7.836 2.07 12.156 1.875 5.047-.034 9.232 1.177 13.969 2.813l2.47.817c2.473.82 4.939 1.657 7.405 2.495q2.23.74 4.46 1.477c3.518 1.161 7.03 2.339 10.54 3.523l3 1-2-2c6.434 1.269 12.227 3.047 18.25 5.625l2.495 1.062c11.028 4.817 24.888 11.14 30.59 22.399 1.546 4.452 1.614 8.651-.218 13.02-4.9 8.387-12.272 14.884-21.117 18.894l-2-1 2.633-1.723c11.76-7.471 11.76-7.471 18.367-19.277.443-4.648.525-6.95-1.562-11.125-6.54-7.714-14.674-12.086-23.438-16.875l1.758 1.137c15.037 9.85 15.037 9.85 18.242 17.863 1.066 5.898.68 10.553-2.5 15.688A81 81 0 0 1 807 807l-1-3-1.617 1.758C791.027 819.76 772.323 825.918 754 831l-2.672.762c-2.77.774-5.546 1.51-8.328 2.238l-1.937.517q-3.186.846-6.375 1.67l-2.031.543c-3.976 1.016-7.558 1.454-11.657 1.27 2.71-1.806 4.301-2.49 7.36-3.297l2.608-.706 2.782-.747c21.368-5.945 44.913-14.579 59.563-32 2.244-4.323 2.667-7.482 1.687-12.25-4.608-12.126-19.008-17.77-30-22.75a266 266 0 0 0-24-9.25l-2.066-.692c-20.61-7.382-20.61-7.382-41.934-11.808-3.247-.541-4.496-1.47-7-3.5"/><path fill="#33415b" d="M767 858c-11.887 3.366-23.804 6.53-35.812 9.438l-2.382.578c-11.068 2.682-22.158 5.221-33.306 7.547-1.197.25-2.395.502-3.628.761l-3.34.68-2.89.588c-2.594.4-5.022.484-7.642.408v2c-2 2-2 2-5 2v2q16.864-4.193 33.718-8.427 3.109-.78 6.218-1.557c13.762-3.45 27.362-7.18 40.844-11.616l3.091-.994 2.717-.896c2.554-.54 3.974-.363 6.412.49-20.919 7.169-41.94 13.415-63.473 18.46-7.086 1.662-14.152 3.404-21.215 5.165l-3.6.895c-6.032 1.512-12.01 3.116-17.962 4.917-4.791 1.426-8.768 1.962-13.75 1.563 3.795-2.214 7.756-3.01 12-4l-1-2 4-2c-6.898-.45-13.192 1.235-19.875 2.812-9.098 2.095-18.154 4.015-27.379 5.45a71 71 0 0 0-8.25 2.152c-6.133 1.896-12.4 2.882-18.72 3.919-13.85 2.285-27.539 5.06-41.221 8.182a871 871 0 0 1-32.305 6.735c-8.703 1.645-17.315 3.363-25.879 5.633-3.699.97-7.42 1.825-11.148 2.672-13.206 3.002-26.299 6.126-39.246 10.136-6.28 1.922-12.508 3.212-18.977 4.309-8.662 1.657-17.297 3.407-25.75 5.937-7.034 2.1-14.158 3.61-21.338 5.126a456 456 0 0 0-22.53 5.413c-3.884 1.011-7.328 1.809-11.382 1.524 2.548-2.548 4.524-2.867 8-3.813l3.781-1.042 2.051-.557c3.1-.841 6.197-1.698 9.293-2.556q2.327-.644 4.656-1.281A223 223 0 0 0 377 941c16.803-5.062 33.914-8.968 51-12.938l2.867-.666c16.149-3.752 32.325-7.262 48.59-10.474l2.703-.536q2.45-.483 4.9-.956a216 216 0 0 0 12.58-2.871c6.398-1.624 12.845-2.835 19.339-4.006 14.59-2.638 29.088-5.627 43.572-8.799a5249 5249 0 0 1 17.637-3.817c1.018-.22 2.036-.442 3.084-.67 15.882-3.421 31.837-6.497 47.772-9.654q10.85-2.151 21.7-4.31 7.024-1.397 14.05-2.786c29.193-5.77 58.176-12.081 87.01-19.458l3.516-.872 3.04-.769c2.623-.415 4.159-.284 6.64.582m-124 34 3 1z"/><path fill="#bfbfc3" d="m290.813 1033.438 2.677.158q3.255.195 6.51.404l-1 3c-2.836 1.387-2.836 1.387-6.375 2.688-1.163.436-2.325.873-3.523 1.324C286 1042 286 1042 283 1042v3l2 1-3.191.734a755 755 0 0 0-26.675 6.693c-6.068 1.629-12.15 3.2-18.232 4.776q-6.823 1.772-13.635 3.585-4.784 1.268-9.57 2.521-2.377.627-4.75 1.263c-2.234.598-4.47 1.184-6.709 1.768l-2.036.554c-3.38.869-5.891 1.398-9.202.106 33.089-10.907 33.089-10.907 50-15-5.576.593-10.795 1.598-16.2 3.066q-2.332.612-4.665 1.221c-2.406.634-4.811 1.272-7.213 1.923-9.856 2.657-18.639 4.52-28.922 3.79 2.45-2.87 4.831-3.898 8.355-5.164l3.292-1.199 3.54-1.262q3.675-1.333 7.348-2.668l1.884-.68c7.236-2.616 14.43-5.344 21.625-8.07C245.85 1038 245.85 1038 250 1038v2l3.402-.805c15.351-3.625 15.351-3.625 22.598-5.195l2.121-.578c4.262-.625 8.405-.263 12.692.015"/><path fill="#d8dfe9" d="M771 240c-3.241 1.866-6.06 2.44-9.758 2.895l-3.538.45-3.829.468q-4.043.516-8.086 1.039l-2.132.274c-7.72.999-15.424 2.1-23.125 3.228q-2.28.333-4.56.662-3.198.463-6.394.933l-3.706.542c-2.804.357-2.804.357-4.872 1.509a92 92 0 0 1-4.105.684l-2.483.373-5.14.75c-4.901.738-9.508 1.794-14.272 3.193q-3.086.524-6.188.938c-4.218.612-8.263 1.381-12.375 2.5-5.1 1.338-10.16 2.153-15.375 2.875-12.352 1.731-24.5 4.394-36.696 6.983-3.76.786-7.526 1.521-11.297 2.246-8.22 1.58-16.284 3.525-24.382 5.646-7.892 2.058-15.08 3.296-23.238 3.542-5.176.405-9.945 1.844-14.906 3.282-4.796 1.337-9.63 2.212-14.543 2.988v-2c13.01-3.688 26.036-7.322 39.093-10.843q2.902-.785 5.802-1.579c9.961-2.672 9.961-2.672 14.69-3.191 3.097-.351 5.183-.908 7.977-2.2 13.486-5.682 28.307-7.964 42.696-10.136 4.133-.63 8.245-1.311 12.351-2.094 17.25-3.249 34.596-5.462 52.016-7.582l3.63-.442c15.268-1.853 30.547-3.6 45.835-5.28 6.09-.67 12.176-1.36 18.257-2.094 4.239-.486 8.389-.63 12.653-.559"/><path fill="#e0e3e8" d="M728 979q-4.248 1.818-8.5 3.625l-2.34 1.004c-5.92 2.51-11.91 4.802-17.935 7.045-7.19 2.677-14.338 5.452-21.475 8.264l-2.096.825a1947 1947 0 0 0-34.154 13.862l-2.314.963c-8.302 3.462-16.559 6.997-24.752 10.71-26.002 11.754-53.31 20.395-80.322 29.488-13.517 4.551-26.95 9.191-40.148 14.611l-2.741 1.11-2.29.958C487 1072 487 1072 484 1071l3.626-1.478c27.123-11.022 27.123-11.022 54.124-22.335 26.672-11.334 53.55-21.699 80.82-31.505q10.183-3.665 20.305-7.495c8.46-3.196 16.943-6.331 25.438-9.437a7616 7616 0 0 0 34.75-12.813l2.317-.86q3.266-1.211 6.53-2.425l1.953-.724c2.65-.986 5.257-1.983 7.83-3.156 2.583-.864 3.788-.705 6.307.228"/><path fill="#0758db" d="m932 920 2 1c-10.67 6.963-21.899 12.735-33.217 18.56a1026 1026 0 0 0-11.72 6.19 634 634 0 0 1-18.801 9.6c-2.755 1.36-5.43 2.752-8.055 4.35-2.207 1.3-2.207 1.3-4.77 1.737-2.572.36-2.572.36-4.242 2.446-2.483 2.395-4.55 3.32-7.758 4.554a198 198 0 0 0-11.148 4.72c-7.53 3.447-15.17 6.632-22.805 9.836q-3.818 1.605-7.634 3.212c-14.149 5.953-14.149 5.953-21.276 8.773-5.552 2.205-11.081 4.465-16.616 6.713l-6.456 2.62-4.17 1.693-1.917.777a252 252 0 0 0-8.873 3.781c-3.204 1.301-6.204 2.143-9.55 2.926-3.222.828-6.281 2.062-9.36 3.305l-2.04.81q-2.137.85-4.275 1.706-3.32 1.33-6.646 2.645a2884 2884 0 0 0-18.734 7.495l-2.531 1.013q-2.214.886-4.417 1.797c-4.65 1.854-4.65 1.854-7.989.741l28.809-12.89 2.378-1.065a3070 3070 0 0 1 11.553-5.142 313 313 0 0 0 9.608-4.454l2.81-1.358 2.904-1.403c7.01-3.364 14.024-6.71 21.125-9.875l1.94-.883c3.277-1.438 5.204-1.93 8.873-1.93v2c23.56-9.846 47.12-19.72 70.282-30.475C857.72 957 857.72 957 862 957v-2l1.768-.677c6.875-2.686 13.526-5.737 20.17-8.948l3.308-1.595c11.309-5.485 22.506-11.18 33.41-17.436l2.25-1.289q2.106-1.213 4.198-2.452c1.599-.927 3.244-1.774 4.896-2.603"/><path fill="#044cbd" d="M781 220v1l-1.942.17q-10.127.887-20.25 1.801-3.765.338-7.53.666c-12.463 1.09-24.773 2.2-37.034 4.731-4.65.906-9.274 1.267-13.994 1.57-9.202.694-18.305 1.806-27.437 3.125l-3.673.529c-5.635.772-5.635.772-11.193 1.935-2.274.552-4.467.754-6.799.938l-2.832.236q-2.905.234-5.812.461c-5.58.47-10.956 1.22-16.423 2.438-2.081.4-2.081.4-5.081.4v2c-7.56 1.577-15.127 3.04-22.742 4.328-12.134 2.054-24.193 4.397-36.237 6.917q-4.53.943-9.06 1.868c-12.888 2.668-25.607 5.786-38.32 9.186-6.068 1.61-12.159 3.129-18.256 4.627q-2.124.525-4.248 1.061a915 915 0 0 1-6.336 1.572l-3.683.915c-2.881.486-4.424.535-7.118-.474 11.784-3.53 23.537-7.02 35.541-9.724 4.098-.93 8.018-2.055 11.979-3.444 46.555-15.616 97.35-21.865 145.804-28.577l3.285-.458 2.874-.396c2.221-.354 4.339-.853 6.517-1.401a245 245 0 0 1 6.438-.438c4.5-.294 8.871-.722 13.312-1.5 7.817-1.296 15.692-1.745 23.59-2.31 5.946-.434 11.823-.96 17.723-1.815 12.922-1.862 25.9-2.108 38.937-1.937"/><path fill="#002b7d" d="M483 943h-2l1 5 4 1-3.059.664a1629 1629 0 0 0-28.253 6.461l-3.27.768-3.094.74-2.747.653c-2.614.67-2.614.67-5.164 1.776-2.878 1.119-5.627 1.249-8.683 1.52-4.566.7-8.906 2.178-13.3 3.578-3.6.882-6.738.986-10.43.84 1.875-5.75 1.875-5.75 3-8l-1.871.402A158 158 0 0 1 392 961c2.689-2.689 5.11-3.043 8.773-4.059l2.058-.575c2.18-.607 4.362-1.205 6.544-1.803l4.293-1.198c3.463-.964 6.93-1.908 10.402-2.842a719 719 0 0 0 5.47-1.512l3.187-.859 2.744-.754c2.821-.444 4.764-.03 7.529.602 3.103-.032 6.166-.412 9.25-.75l2.45-.227c5.028-.53 9.51-1.58 14.253-3.337 4.522-1.515 9.472-2.402 14.047-.686"/><path fill="#386dc4" stroke="null" d="m345 720 1 2c-1 2.579-1 2.579-2.57 5.82l-1.72 3.563-.914 1.864a749 749 0 0 0-2.687 5.55c-2.468 5.08-4.924 10.081-7.976 14.84-1.967 3.102-2.802 5.496-3.559 9.05-2.231 8.987-6.395 17.228-10.926 25.243-1.764 3.286-3.19 6.638-4.648 10.07a544 544 0 0 1-3.625 7.25c-4.632 9.168-9.01 18.453-13.375 27.75-1.096-3.287-.97-3.81.145-6.906l.802-2.254.866-2.34.83-2.34c1.227-3.396 2.336-6.129 4.357-9.16l-1.863.691-2.45.871-2.425.88C292 813 292 813 289 812l2.668-.89c6.943-2.575 6.943-2.575 12.062-7.653 1.186-2.892 1.186-2.892 2.086-5.932 1.205-3.587 2.651-6.905 4.266-10.326l.916-1.942c3.463-7.298 7.063-14.53 10.683-21.75q1.725-3.443 3.442-6.89l2.209-4.414 1.029-2.064c1.424-2.835 2.876-5.495 4.639-8.139-3.23.873-8.695 2.356-9.687 2.625-.993.27 2.825-.774-3.007.816-3.485-4.671.194-5.564 4.089-6.086 7.283-.968 7.283-.968 13.167-5.093 3.096-4.47 5.343-9.258 7.438-14.262z"/><path fill="#90939a" d="M689 706c8.822.589 17.467 1.744 26.188 3.188l1.99.325c22.36 3.66 44.7 7.584 66.822 12.487v2l2 1v2l3.563-.187c4.477-.024 7.461 1.2 11.437 3.187l-2 2c-7.566-.355-14.915-2.165-22.295-3.782-3.68-.804-7.365-1.588-11.049-2.374l-2.24-.479c-16.324-3.484-32.49-6.537-49.103-8.266-9.603-1.032-18.922-2.87-28.313-5.099 1.255-2.51 2.5-2.871 5-4z"/><path fill="#0850ce" d="M589 267c-6.216 2.944-12.225 4.508-18.993 5.648-13.06 2.314-25.821 6.324-38.573 9.918l-2.518.708q-2.288.644-4.574 1.304c-2.886.818-5.324 1.422-8.342 1.422v2l1.93-.871c3.994-1.469 8.036-2.314 12.195-3.191l4.82-1.036 2.141-.453c2.116-.466 2.116-.466 4.914-1.449a81 81 0 0 1 4.688-.062l2.449.027L551 281c-3.453 2.302-6.706 3.004-10.687 3.875q-2.298.516-4.594 1.035l-2.367.536a220 220 0 0 0-6.82 1.738l-2.15.572c-1.967.529-3.93 1.068-5.894 1.607-3.488.637-3.488.637-6.346.114-3.366-.511-5.599-.217-8.904.527l-3.35.737-3.576.822-3.723.83a2357 2357 0 0 0-7.72 1.735c-3.738.842-7.48 1.66-11.224 2.47-10.252 2.223-20.46 4.438-30.508 7.465-4.858 1.451-9.762 2.716-14.664 4.007a157 157 0 0 0-7.164 2.11c-3.08.763-4.429.972-7.309-.18 9.172-3.331 18.314-6.47 27.727-9.066 4.073-1.162 8.068-2.51 12.066-3.907 9.93-3.18 20.114-5.525 30.24-7.989q3.694-.9 7.385-1.81c7.386-1.805 14.735-3.517 22.233-4.796 3.8-.7 7.502-1.717 11.224-2.745A630 630 0 0 1 545.5 275.5a678 678 0 0 0 20.687-5.187c18.02-4.792 18.02-4.792 22.813-3.313"/><path fill="#1c5eca" d="M512 912c-3.147 2.098-5.283 2.684-8.941 3.516l-3.668.843-1.951.44q-3.042.687-6.081 1.388a3059 3059 0 0 1-19.285 4.36c-11.766 2.642-23.37 5.536-34.898 9.094-6.347 1.936-12.639 3.252-19.176 4.359-8.662 1.657-17.297 3.407-25.75 5.938-7.034 2.098-14.158 3.61-21.338 5.125a456 456 0 0 0-22.53 5.413c-3.884 1.011-7.328 1.809-11.382 1.524 2.548-2.548 4.524-2.867 8-3.812l3.781-1.043 2.051-.557c3.1-.841 6.197-1.698 9.293-2.556q2.327-.644 4.656-1.281A223 223 0 0 0 377 941c16.803-5.062 33.914-8.968 51-12.937l2.867-.667c13.493-3.135 26.994-6.18 40.58-8.886 2.66-.531 5.318-1.076 7.975-1.623 24.7-5.059 24.7-5.059 32.578-4.887"/><path fill="#002b78" d="M999 790c1.586.23 3.17.485 4.75.75l2.672.422c3.107.998 4.296 2.542 6.578 4.828 2.784 1.113 2.784 1.113 5.813 1.875 9.947 3.139 14.839 9.348 20.187 18.125 1.981 5.943 3.109 12.81 1.02 18.82-3.15 5.745-3.15 5.745-6.02 7.18v-3l-2-1c-.414-3.16-.414-3.16-.625-7.062l-.227-3.91L1031 824l-2 1-1-4-4 1-1.062-3.437c-1.99-5.312-5.321-9.262-8.938-13.563l-1.473-1.879c-3.44-4.283-7.35-7.486-11.77-10.738L999 791z"/><path fill="#003faa" d="M656 906v2l-2.032.519q-4.579 1.174-9.155 2.356l-3.198.816-3.095.801-2.841.73c-2.645.768-5.127 1.746-7.679 2.778-5.774 1.28-11.554 2.453-17.437 1.438-8.205-1.307-16.864 1.957-24.563 4.562-5.42 1.486-10.38 2.24-16 2l-3-7c14.578-3.968 27.902-5.695 43-5l-2 2c5.394-.575 10.456-1.553 15.688-3 6.2-1.648 12.105-2.512 18.542-2.727 4.974-.49 8.58-2.514 13.77-2.273"/><path fill="#0355de" d="M863 738c7.652.523 14.877 1.97 22.313 3.813l3.348.813a272 272 0 0 1 19.519 5.581c3.063.861 6.041 1.316 9.195 1.73 6.792.94 12.924 3.024 19.373 5.295 3.493 1.191 7.019 2.272 10.543 3.366C967.9 765.015 967.9 765.015 973 768c1.044 3.134.934 3.99 0 7l-4-1v-2l-2.616-.366c-3.37-.631-6.317-1.577-9.525-2.779l-3.496-1.302-3.613-1.365-3.566-1.33c-5.24-1.962-10.463-3.956-15.649-6.057A120 120 0 0 0 919.687 755l-3.316-.992L913 753l-6.75-2.125a139 139 0 0 0-12.898-3.32c-3.99-.941-7.87-2.239-11.778-3.47-6.145-1.866-12.359-3.469-18.574-5.085z"/><path fill="#074aba" d="M419 493a8186 8186 0 0 1-11.062 3.875l-3.147 1.105c-5.232 1.828-10.446 3.548-15.791 5.02-4.378 1.28-8.751 2.58-13.125 3.875l-3.477 1.027c-14.725 4.24-14.725 4.24-29.189 9.271-5.431 2.033-10.957 3.808-16.459 5.64l-2.03.677c-8.484 2.828-16.986 5.542-25.576 8.032-5.728 1.689-11.393 3.54-17.054 5.439l-2.42.812a3141 3141 0 0 0-12.096 4.09c-7.128 2.414-14.16 4.747-21.574 6.137 2.448-2.886 4.751-3.822 8.32-4.98l3.277-1.078 3.528-1.13 3.622-1.184c6.11-1.99 12.231-3.942 18.355-5.89l3.39-1.08q3.183-1.01 6.372-2.006l2.933-.925 2.542-.795c2.047-.717 4.059-1.533 6.052-2.389 3.485-1.49 6.97-2.755 10.562-3.961l1.968-.661q3.162-1.059 6.329-2.109l2.205-.734a905 905 0 0 1 33.067-10.297 704 704 0 0 0 20.603-6.344 801 801 0 0 1 24.5-7.437l3.254-.955 3.035-.857 2.686-.77c2.512-.438 4.01-.234 6.4.582"/><path fill="#c8c9ce" d="M843 248c-3.411 1.976-6.614 2.59-10.488 3.219l-3.83.636-3.995.645q-3.9.634-7.8 1.281l-3.494.565c-3.54.682-6.934 1.642-10.393 2.654q-3.333.564-6.688 1c-6.462.873-12.886 1.894-19.312 3 6.5-.398 12.898-.907 19.312-2.062 4.665-.837 8.957-1.12 13.688-.938-3.173 1.778-6.12 2.564-9.684 3.254l-3.31.65-3.444.659-3.431.67q-3.164.617-6.332 1.226-3.903.755-7.799 1.541v2q-3.747.764-7.5 1.5l-2.11.434c-4.88.949-9.417 1.2-14.39 1.066 1.634-1.708 2.87-2.935 5-4v-3l-2.625.563c-3.427.444-6.017.157-9.375-.563v-1c25.21-4.338 50.415-8.67 75.708-12.495q3.415-.525 6.826-1.08l3.458-.558 3.066-.504c3.011-.372 5.911-.426 8.942-.363"/><path fill="#012870" d="m386 358-2.29.813a4452 4452 0 0 0-22.96 8.25l-2.756.994a459 459 0 0 0-15.363 5.882c-5.093 2.053-10.208 4.053-15.318 6.061l-3.633 1.428a3707 3707 0 0 1-19.98 7.783l-2.082.804q-4.98 1.922-9.96 3.837c-9.38 3.615-18.67 7.398-27.88 11.421-.806.35-1.61.7-2.44 1.059a655 655 0 0 0-4.906 2.156l-2.405 1.035-2.133.935C250 411 250 411 247 410c12.713-6.21 25.56-12.092 38.5-17.812l2.183-.97C296.7 387.223 305.757 383.452 315 380q2.034-.775 4.066-1.555c13.717-5.18 27.501-10.229 41.563-14.398a242 242 0 0 0 8.023-2.656l2.46-.852a456 456 0 0 0 4.799-1.697l2.218-.768 1.97-.7c2.257-.444 3.733-.073 5.901.626"/><path fill="#004ece" d="M482 744c1.234 3.702.307 4.986-1.35 8.368l-1.103 2.175-1.124 2.278q-1.2 2.424-2.41 4.844c-2.12 4.235-4.21 8.485-6.302 12.733l-1.256 2.544a584 584 0 0 0-9.08 19.37 778 778 0 0 1-29.126 57.9c-4.179 7.543-8.025 15.235-11.774 23l-1.295 2.651-1.134 2.353C415 884 415 884 413 885c1.368-4.39 3.071-8.429 5.09-12.559l.909-1.868q1.465-3.007 2.938-6.01 1.548-3.173 3.092-6.347l2.068-4.244c2.388-4.9 4.741-9.815 7.075-14.74 9.25-19.514 18.84-38.902 29.01-57.953C469.708 768.986 475.807 756.464 482 744"/><path fill="#434956" d="M745 756c10.157.164 18.775 4.122 28 8l2.049.843c3.276 1.364 5.605 2.476 7.951 5.157 2.61 2.416 4.71 3.234 8.125 3.938 3.682.822 3.682.822 5.438 3C797 779 797 779 796 782v2h2c1.784 3.062 2.229 5.22 2.125 8.75l-.055 2.422L800 797l-2-1-.805 1.715-1.07 2.222-1.055 2.215C794 804 794 804 792 805c1.875-4.75 1.875-4.75 3-7 .83-4.972.402-9.103-2.125-13.5-9.251-12.335-26.76-17.834-40.447-23.58l-2.471-1.057-2.231-.94C746 758 746 758 745 756"/><path fill="#a8cbf5" d="m932 920 2 1c-10.67 6.963-21.899 12.735-33.217 18.56a1026 1026 0 0 0-11.72 6.19 634 634 0 0 1-18.801 9.6c-2.686 1.325-5.295 2.67-7.84 4.252C860 961 860 961 857.352 961.878c-3.893 1.303-7.63 2.86-11.407 4.466l-2.336.987q-2.468 1.043-4.936 2.09a4518 4518 0 0 1-7.692 3.249 5526 5526 0 0 0-22.754 9.646l-6.477 2.747-2.968 1.28-2.673 1.13-2.282.976C792 989 792 989 790 988c8.643-4.456 17.433-8.437 26.375-12.25a4226 4226 0 0 0 9.917-4.263c6.96-3.01 13.851-6.172 20.706-9.416 4.958-2.305 9.651-3.92 15.002-5.071v-2l1.768-.677c6.875-2.686 13.526-5.737 20.17-8.948l3.308-1.595c11.309-5.485 22.506-11.18 33.41-17.436l2.25-1.289q2.106-1.213 4.198-2.452c1.599-.927 3.244-1.774 4.896-2.603"/><path fill="#787c86" d="M758 658c-3.197 2.131-5.391 2.693-9.117 3.516l-3.75.844-1.982.44c-10.028 2.23-20.02 4.568-29.901 7.387l-2.425.683c-5.065 1.476-9.905 3.307-14.767 5.354C694 677 694 677 692 677l-1 3c-2.701 1.65-5.5 3-8.336 4.402-2.738 1.642-4.097 2.84-5.664 5.598-.25 3.667-.25 3.667 0 7-3.049-1.016-3.867-1.774-6-4l-2-1v-2h-3c2.7-6.023 5.911-7.543 12-10l2.25-1.188C682 678 682 678 685 678l1-3c1.746-.637 1.746-.637 4-1l2.41-.395 2.652-.418c3.78-.678 7.23-1.56 10.813-2.937 12.33-4.7 25.202-8.023 38.125-10.625l2.515-.508c3.88-.745 7.514-1.325 11.485-1.117"/><path fill="#dddee1" d="m409 366-5 3 3 1-1 4c-1.198.315-2.395.63-3.629.953l-2.366.622-5.168 1.358a1575 1575 0 0 0-12.228 3.254l-2.017.546q-2.697.733-5.393 1.47c-3.056.761-6.086 1.326-9.199 1.797 2.488-2.488 4.868-3.308 8.125-4.625l3.32-1.352L380 377c-6.514 1.554-12.894 3.166-19.16 5.547C359 383 359 383 356 382c12.656-5.23 25.359-10.299 38.312-14.75l3.069-1.088 2.857-.959 2.501-.854c2.76-.426 3.939.184 6.261 1.651"/><path fill="#cccdd2" d="M378 992v3l3.188-1c3.2-.84 5.553-1.198 8.812-1l-1 2c-5.95 1.708-12.14 2.926-18.312 3.438-5.107.463-10.019 1.772-14.987 2.982a247 247 0 0 1-14.389 3.018c-9.08 1.64-18.052 3.712-27.038 5.801q-4.485 1.042-8.972 2.075-4.005.924-8.012 1.853-2.886.669-5.773 1.334c-6.429 1.497-12.798 3.08-19.126 4.961-2.535.57-4.8.633-7.391.538 2.369-2.369 3.726-2.6 6.953-3.367l3.045-.74 3.252-.768c6.795-1.644 13.556-3.296 20.25-5.313 4.404-1.296 8.737-2.248 13.262-3.011 11.999-2.147 23.757-5.378 35.55-8.426l7.077-1.813c6.422-1.647 6.422-1.647 12.843-3.303.85-.22 1.702-.44 2.579-.665C375.688 992 375.688 992 378 992"/><path fill="#272a36" d="M503 647c1.187 3.562.79 4.12-.695 7.43l-1.164 2.641-1.266 2.804q-1.262 2.865-2.52 5.73l-1.236 2.81c-2.22 5.127-4.155 10.356-6.119 15.585-3.779 9.756-7.923 19.366-12 29l1.426-2.852L488 693c1 2 1 2 .136 4.658l-1.374 3.338-1.487 3.631c-.26.625-.52 1.25-.79 1.895a855 855 0 0 0-2.35 5.714c-3.845 9.329-3.845 9.329-6.135 12.764a401 401 0 0 0-3 6c-1.512-4.326-.122-7.126 1.406-11.27.807-2.799.807-2.799-.087-5.875-.414-5.002.992-7.85 3.17-12.261l1.134-2.408a903 903 0 0 1 3.69-7.686q1.876-3.956 3.745-7.916 1.236-2.618 2.479-5.232c3.77-7.942 7.293-15.974 10.732-24.065l1.079-2.53.906-2.151C502 648 502 648 503 647"/><path fill="#012c76" d="M292 506c-2.604 2.604-5.46 3.3-8.887 4.39l-2.103.689c-2.23.73-4.464 1.45-6.698 2.171-9.789 3.16-19.425 6.467-28.931 10.408C231.926 529 231.926 529 226 529v2c-31.674 10.558-31.674 10.558-33.81 11.262q-2.325.785-4.631 1.622l-2.419.86c-.721.265-1.443.528-2.186.8C181 546 181 546 178 545c5.487-2.887 10.842-5.088 16.75-6.937 5.164-1.664 10.214-3.381 15.187-5.563 5.877-2.55 11.912-4.427 18.04-6.27 3.903-1.186 7.698-2.47 11.468-4.03 7.787-3.184 15.82-5.692 23.805-8.325l4.914-1.629c3.66-1.213 7.32-2.426 10.982-3.63a384 384 0 0 0 5.181-1.776c2.716-.854 4.845-1.006 7.673-.84"/><path fill="#2b313e" d="m621 416 2 1-2 1.375-2 1.625v2l2 1c-18.085 3.066-36.174 6.083-54.312 8.813l-2.108.317c-6.524.98-13.05 1.941-19.58 2.87 3.285-2.19 6.22-2.913 10-3.75l2.194-.504c4.83-1.102 9.671-2.152 14.513-3.2l3.553-.774q3.47-.755 6.945-1.49c6.574-1.427 12.827-3.257 19.181-5.457 3.044-.96 5.865-1.353 9.051-1.45 4.028-.142 6.84-.88 10.563-2.375"/><path fill="#dddee1" d="m411 464-1 2h8v1l5 1v1l-2.656.191c-12.02 1.16-23.1 4.462-34.615 7.991-3.515 1.054-7.048 1.975-10.604 2.88-6.533 1.69-12.88 3.813-19.226 6.096-5.577 1.95-5.577 1.95-8.899.842 16.391-7.014 16.391-7.014 22.813-8.562 3.847-.952 7.053-2.28 10.562-4.125 5.743-3.005 11.643-5.415 17.688-7.75l2.815-1.11 2.657-1.012 2.387-.915C408 463 408 463 411 464"/><path fill="#aeb0b6" d="M746 716c5.021-.136 9.542.332 14.465 1.313l2.055.403c2.14.422 4.279.853 6.417 1.284l4.385.867q5.34 1.057 10.678 2.133v2l2 1v2l3.563-.187c4.477-.024 7.461 1.2 11.437 3.187l-2 2c-7.95-.356-15.741-2.29-23.503-3.956-2.254-.483-4.51-.956-6.767-1.429l-4.34-.924-2.023-.423c-3.623-.785-6.972-1.778-10.367-3.268l1-3h-3v-2z"/><path fill="#d0d6df" d="M320 768c1.261 3.784.255 5.314-1 9l1 2c-1.11 2.574-1.11 2.574-2.75 5.688-2.289 4.372-4.308 8.776-6.25 13.312a544 544 0 0 1-3.625 7.25c-4.632 9.168-9.01 18.453-13.375 27.75-1.096-3.287-.97-3.81.145-6.906l.802-2.254.866-2.34.83-2.34c1.227-3.396 2.336-6.129 4.357-9.16l-1.863.691-2.45.871-2.425.88C292 813 292 813 289 812l2.668-.89c6.943-2.575 6.943-2.575 12.062-7.653 1.233-3.116 2.244-6.267 3.27-9.457 1.072-2.557 2.247-5.06 3.438-7.562l.892-1.907c2.66-5.636 5.593-11.11 8.67-16.531"/><path fill="#292f3e" d="M243 1052c-2.389 2.389-3.858 2.655-7.11 3.48l-3.197.83-3.443.878c-8.998 2.359-17.939 4.832-26.812 7.624l-2.845.878-2.597.83-2.276.721c-1.92.63-1.92.63-2.72 2.759-2.398.887-2.398.887-5.375 1.688l-2.96.824C181 1073 181 1073 178 1072q2.186-.755 4.375-1.5l2.46-.844C187 1069 187 1069 189 1069l-1-2c-7.355.339-13.898 2.007-20.898 4.258-3.086.738-4.187.624-7.102-.258 3.335-1.546 6.695-3.027 10.063-4.5l2.798-1.3c5.598-2.408 9.992-3.401 16.1-3.169 9.974.32 19.044-2.427 28.602-5.031q4.033-1.08 8.072-2.14 2.49-.654 4.971-1.335c4.244-1.13 7.957-1.773 12.394-1.525"/><path fill="#e4e7ed" d="M844.563 197.813h2.154c10.565.019 20.847.412 31.283 2.187l2.333.39A763 763 0 0 1 895 203v1c-26.374-.47-52.674-1.316-79-3 7.666-5.11 19.6-3.2 28.563-3.187"/><path fill="#d4d5d9" d="m493 675 2 2c-.321 3.532-.878 6.635-2 10l3 1c-1.466 4.952-3.59 9.191-6.062 13.688-5.01 9.269-9.502 18.758-13.938 28.312-1.36-4.078.151-6.523 1.746-10.293l.879-2.14c.928-2.255 1.87-4.505 2.812-6.755l1.893-4.583A2522 2522 0 0 1 488 695l-1.426 2.852L478 715c-1-2-1-2-.243-4.303l1.227-2.861 1.336-3.152 1.43-3.309q1.37-3.206 2.734-6.414l1.321-3.097a194 194 0 0 0 2.918-7.419c1.22-3.289 2.648-6.342 4.277-9.445"/><path fill="#2b2e3a" d="m821 254-3 1 5 1-1.937.938c-2 .897-2 .897-3.063 2.062l4 2q-7.332 1.05-14.667 2.081-2.486.352-4.971.707c-9.78 1.4-19.494 2.63-29.362 3.212 3.107-2.071 4.97-2.557 8.586-3.254 1.096-.215 2.191-.43 3.32-.65l3.469-.659c1.137-.22 2.274-.442 3.445-.67q3.182-.617 6.365-1.226A886 886 0 0 0 806 259c-1.471.2-1.471.2-2.973.402A366 366 0 0 1 775 262c2.721-2.721 5.593-2.873 9.25-3.5l2.163-.388c5.775-1.02 11.572-1.853 17.384-2.635 3.752-.559 7.427-1.332 11.117-2.207 2.304-.298 3.888.029 6.086.73"/><path fill="#4983de" d="M658 233v1l-2.044.335q-4.666.769-9.331 1.54l-3.215.527c-5.819.964-11.605 2.003-17.373 3.235C624 240 624 240 621 240v2c-8.974 1.871-17.975 3.578-27 5.188l-2.965.541c-5.095.897-9.862 1.48-15.035 1.271l-1-2c10.185-3.171 20.296-5.29 30.813-7l4.614-.768q4.608-.766 9.219-1.518a1881 1881 0 0 0 11.874-1.987q3.302-.552 6.605-1.102l2.972-.508c5.715-.93 11.112-1.27 16.903-1.117"/><path fill="#ced0d5" d="m355 847 2 1c-1.307 4.224-2.919 8.02-4.977 11.93l-1.77 3.384-.93 1.762c-1.604 3.044-3.195 6.096-4.788 9.147l-.946 1.81a731 731 0 0 0-6.776 13.28l-.894 1.79a1575 1575 0 0 0-5.74 11.682l-2.991 6.09c-.47.971-.938 1.942-1.421 2.943l-1.349 2.737-1.195 2.452C322 919 322 919 319 921c1.253-3.987 2.713-7.657 4.61-11.379l1.528-3.022 1.612-3.161c5.875-11.649 11.503-23.198 16.09-35.426 1.317-3.42 2.79-6.744 4.328-10.07.974-2.161.974-2.161 1.832-5.442l1-2.5c2.062-.75 2.062-.75 4-1z"/><path fill="#d9d9dc" d="M736 411c-2.63 1.394-5.104 2.406-7.984 3.148l-2.31.602-2.456.625-2.555.662c-6.616 1.707-13.248 3.347-19.883 4.979-5.052 1.304-10.034 2.804-15.019 4.347C683 426 683 426 680 425l1-3-6-2c2.922-1.596 5.618-2.513 8.875-3.187l2.492-.543c2.633-.27 2.633-.27 5.36.273 3.71.518 6.595.136 10.28-.504l1.964-.333c2.053-.351 4.103-.716 6.154-1.081q2.076-.357 4.152-.71c6.494-1.06 6.494-1.06 12.91-2.488 2.92-.688 5.83-.484 8.813-.427"/><path fill="#104090" d="M829 198v1l-10 1 33 2v1q-13.196.07-26.391.104-6.128.014-12.255.047-5.913.032-11.826.039-2.256.005-4.512.021c-2.106.015-4.213.017-6.32.016l-3.633.014c-2.936-.231-4.593-.701-7.063-2.241 1.806-1.806 4.582-1.366 7.027-1.535l3.818-.264q2.046-.133 4.093-.263l2.056-.136c10.678-.7 21.306-1.063 32.006-.802"/><path fill="#6f737d" d="M689 706c10.767.635 21.355 2.321 32 4v1h-5l-1 4 10 2v1c-8.271-.57-16.388-1.562-24.562-2.937l-3.229-.514-3.088-.514-2.768-.457C689 713 689 713 686 711l5-2z"/><path fill="#8d8f96" d="m217.563 1051.688 2.316-.051c2.6.445 3.47 1.363 5.121 3.363-11.58 6.258-27.937 9.378-41 8 2.761-3.55 6.737-4.691 10.813-6.187l2.119-.827c4.235-1.58 7.508-2.07 12.068-1.986 3.121-1.464 5.054-2.295 8.563-2.312"/><path fill="#dbdbdc" d="m924 856 2 1c-8.434 5.4-16.934 10.63-25.687 15.5l-2.283 1.275c-3.607 1.988-7.147 3.816-11.03 5.225l-3-5c5.978-6.564 14.49-9.234 23-11v2l1.529-.842c2.277-1.249 4.562-2.485 6.846-3.72l2.406-1.327 2.305-1.24 2.126-1.158z"/><path fill="#dfe0e3" d="m359 856 3 2-1.547 2.395a2259 2259 0 0 0-15.114 23.766A609 609 0 0 1 335 900l-1-2c.964-1.688 1.973-3.35 3-5a785 785 0 0 0 2.157-5.062c1.735-3.988 3.75-7.841 5.717-11.718 1.654-3.264 3.285-6.528 4.806-9.857l1.508-3.238 1.292-2.867c1.886-2.802 3.243-3.534 6.52-4.258"/><path fill="#979aa0" d="m265 1047-17 5 1 3a4096 4096 0 0 1-15.495 4.079q-3.89 1.022-7.776 2.057-5.886 1.566-11.778 3.11-2.388.63-4.771 1.267c-2.265.606-4.533 1.2-6.801 1.792l-2.075.564c-3.408.875-5.965 1.446-9.304.131 45.507-15 45.507-15 52-15v-2q4.37-1.298 8.75-2.562l2.5-.749 2.422-.693c.733-.215 1.466-.43 2.222-.65C261 1046 261 1046 265 1047"/><path fill="#204c95" d="M983 820h1l1 7 1-7h1c.885 12.714-3.134 23.017-11 33-3.439 3.588-7.184 6.82-11 10l-2-1 2.012-1.723c8.64-7.42 8.64-7.42 13.988-17.277h-2v-2l-1.937-.875C973 839 973 839 972 837c1.596-3.192 4.857-3.617 8.121-4.71 2.16-1.172 2.16-1.172 2.488-3.892l.141-3.023.172-3.04zm-5 19-1 2h2z"/><path fill="#012d7b" d="m353 705-1 3c-2.478.92-2.478.92-5.766 1.684l-3.64.873-3.844.88c-8.372 1.965-16.611 4.072-24.812 6.664-3.921 1.2-7.872 2.145-11.875 3.024-3.852.856-7.64 1.734-11.387 2.984-2.731.91-4.82 1.059-7.676.891 2.532-2.532 4.66-3.013 8.074-4.094l3.713-1.183 3.9-1.223 3.842-1.223c8.811-2.794 17.352-5.367 26.506-6.715 3.12-.592 5.96-1.539 8.965-2.562a290 290 0 0 1 6.75-1.625c1.13-.26 2.258-.52 3.422-.79C351 705 351 705 353 705"/><path fill="#0844a4" d="M863 738c7.652.523 14.877 1.97 22.313 3.813l3.348.813a264 264 0 0 1 19.464 5.57c4.4 1.23 8.86 1.78 13.39 2.312L924 751l1 2 3 1v3l4 1c-2 1-2 1-3.795.567l-2.174-.782-2.441-.859L921 756q-2.577-.881-5.156-1.754l-2.66-.9-2.684-.908-2.684-.92c-4.899-1.651-9.74-3.021-14.801-4.077-2.77-.606-5.443-1.446-8.14-2.316-7.234-2.277-14.536-4.217-21.875-6.125z"/></svg>